<?xml version="1.0" encoding="utf-8"?>
<!-- Generator: Adobe Illustrator 18.0.0, SVG Export Plug-In . SVG Version: 6.00 Build 0)  -->
<!DOCTYPE svg PUBLIC "-//W3C//DTD SVG 1.1//EN" "http://www.w3.org/Graphics/SVG/1.1/DTD/svg11.dtd">
<svg version="1.1" id="Layer_1" xmlns="http://www.w3.org/2000/svg" xmlns:xlink="http://www.w3.org/1999/xlink" x="0px" y="0px"
	 viewBox="0 0 468 122.4" enable-background="new 0 0 468 122.4" xml:space="preserve">
<rect y="0" display="none" stroke="#FFFFFF" width="468" height="122.4"/>
<g>
	<path fill="none" d="M54.6,17.2c0,0-13.5,7.2-24,11.1c-10,3.7-19.1,4.8-19.1,4.8s-2.3,25,5.4,41c14.8,30.7,37.6,36.4,37.6,36.4
		s27.1-8.5,37.9-36.6c8-20.9,5.1-40.5,5.1-40.5s-10.8-2.1-21.5-6.3C65.2,22.9,54.6,17.2,54.6,17.2"/>
	<path fill="none" d="M14.1,65.7h81c0,0-3.3,14.9-15.1,27.7c-11.8,12.8-25.5,17.4-25.5,17.4s-15.5-5.9-25.3-17.4
		C16.8,78.9,14.1,65.7,14.1,65.7"/>
	<path fill="#FFFFFF" d="M65.9,18.5c1.2,0.2,2.3,0.7,2.6,1c0.4,0.4,0,0.9-0.5,0.7c-1.4-0.4-2.2,0.2-2.5,0.6
		c-0.1,0.1-0.9-0.2-0.7-0.6C65,19.6,65.6,18.4,65.9,18.5z"/>
	<path fill="#FFFFFF" d="M43.4,18.5c-1.2,0.2-2.3,0.7-2.6,1c-0.4,0.4,0,0.9,0.5,0.7c1.4-0.4,2.2,0.2,2.5,0.6
		c0.1,0.1,0.9-0.2,0.7-0.6C44.3,19.6,43.7,18.4,43.4,18.5z"/>
	<path fill="#FFFFFF" d="M98.4,33l-0.1-0.6l-0.6-0.1c-0.1,0-10.8-1.4-23.2-6.8c-2.2-0.9-4.2-1.8-6-2.7c0.5,0,1.1,0,1.7-0.1
		c0.8-0.1,2.3-0.6,2.3-0.6c2.5-0.7,5.4-1.5,9.6,0.1c0.1,0,0.1,0,0.2,0c0.1,0,0-0.1,0-0.2c-0.7-2.2-4.2-2.7-4.2-2.7s0.4-0.7,2.4-0.3
		c0.1,0,0.1,0,0.2,0c0,0,0-0.1,0-0.2c-1.8-2.1-6.1-1.8-8-1.4c-0.4,0.1-0.7,0.2-0.7,0.2l0,0c0,0-1.2,2-1.6,2.7
		c-0.3,0.5-0.7,0.7-1.2,0.7c-0.3,0-1.3-0.4-1.7-0.4c-1,0.1-1.5,0.4-1.7,0.7c-5.1-2.4-8.4-4.2-9.8-4.9c7.6,0.1,13.5,1.4,13.5,3
		c0,0,0,0,0,0.1c0,0,0,0,0,0v0c0,0,0,0.1,0,0.1c0,0,0,0,0,0c0,0,0,0,0,0.1c0,0,0,0,0,0c0,0,0,0,0,0c0,0,0,0,0,0c0,0,0,0,0,0
		c0.1,0,0.2-0.3,0.6-0.8c3.7-5.7,3.9-6.5,3.4-7.1c0,0,0,0,0,0c0,0-2.6-4-18.1-4.1h0c0,0,0,0,0,0c0,0,0,0,0,0c-0.2,0-0.4,0-0.7,0
		c-0.2,0-0.4,0-0.7,0c0,0,0,0,0,0c0,0,0,0,0,0c-15.5,0-18.1,4-18.1,4.1l0,0c-0.5,0.6-0.2,1.4,3.4,7.1c0.3,0.5,0.5,0.8,0.6,0.8
		c0,0,0,0,0,0c0,0,0,0,0,0c0,0,0,0,0,0c0,0,0,0,0,0c0,0,0,0,0-0.1c0,0,0,0,0,0c0,0,0-0.1,0-0.1c0,0,0,0,0,0c0,0,0,0,0,0
		c0,0,0,0,0-0.1c0-1.6,6-2.9,13.6-3c-1.6,0.8-5.3,2.7-9.8,4.9c-0.2-0.3-0.7-0.6-1.7-0.7c-0.4,0-1.4,0.4-1.7,0.4
		c-0.5,0-0.9-0.2-1.2-0.7c-0.5-0.7-1.6-2.7-1.6-2.7l0,0c0,0-0.4-0.1-0.7-0.2c-1.9-0.4-6.3-0.7-8,1.4c-0.1,0.1-0.1,0.1,0,0.2
		c0,0,0.1,0,0.2,0c2-0.4,2.4,0.3,2.4,0.3s-3.4,0.5-4.2,2.7c0,0.1-0.1,0.2,0,0.2c0,0,0.1,0,0.2,0c4.2-1.7,7.1-0.9,9.6-0.1
		c0,0,1.5,0.4,2.3,0.6c0.6,0.1,1.1,0.1,1.6,0.1c-2,0.9-4.1,1.8-6.1,2.7c-12.6,5.2-22.9,6.8-23,6.8L11,32.4L10.9,33
		c0,0.2-2.8,23.6,5.2,40.9c7.3,15.8,17.3,25.2,24.4,30.3c7.7,5.5,13.6,7.3,13.9,7.4l0.2,0.1l0.2-0.1c0.3-0.1,6.9-2.4,15-8.2
		c7.5-5.3,17.6-14.8,23.4-29.5C101.6,52.6,98.4,33.2,98.4,33z M60.3,13.4c1-1.2,2.2-2.3,3.3-3.4c0.1-0.1,0.2-0.2,0.3-0.1
		c0.1,0,0.2,0,0.3,0c0.2,0,0.2,0.1,0.1,0.2c-1.1,1-2.1,2-3.1,3c-0.1,0.1-0.1,0.2,0.2,0.2c0.4,0,0.7,0.1,1.1,0.1c0.2,0,0.2,0,0.2-0.2
		c0.1-0.4,0.1-0.8,0.2-1.1c0-0.2,0.1-0.2,0.2-0.3c0.2-0.1,0.7-0.1,0.9-0.1c0.1,0,0.1,0.1,0.1,0.2c-0.1,0.5-0.2,1-0.2,1.5
		c0,0.2,0,0.2,0.2,0.3c0.2,0,0.4,0.1,0.6,0.1c0.1,0.1,0.1,0.4-0.1,0.5c-0.2,0-0.4-0.1-0.6-0.1c-0.2,0-0.2,0-0.2,0.2
		c0,0.1,0,0.2,0,0.2c-0.1,0.7-0.1,0.7,0.3,0.8c0.1,0,0.1,0,0.2,0c0.1,0.1,0,0.3-0.1,0.3c-0.3-0.1-0.7-0.1-1.1-0.2
		c-0.5-0.1-1-0.1-1.3-0.2c-0.1,0-0.1-0.2,0-0.3c0.1,0,0.2,0,0.3,0c0.4,0,0.5,0,0.6-0.7c0-0.1,0-0.2,0-0.2c0-0.2,0-0.2-0.2-0.3
		c-0.7-0.1-1.3-0.2-2-0.2C60.3,13.6,60.2,13.5,60.3,13.4z M55.7,14.7c0.1,0,0.2,0,0.3,0c0.4,0,0.5-0.1,0.5-0.8
		c0-0.9,0.1-1.8,0.1-2.7c0-0.5,0-0.7-0.4-0.7c-0.1,0-0.3,0-0.4-0.1c-0.1,0-0.1-0.2,0-0.3c0.4,0,0.8-0.1,1.2-0.2
		c0.4-0.1,0.8-0.2,0.8-0.2c0,0,0.1,0,0.1,0.1c0,0.2-0.1,0.6-0.1,1c-0.1,1.1-0.1,2.1-0.2,3.2c0,0.7,0,0.7,0.4,0.8c0.1,0,0.2,0,0.3,0
		c0.1,0.1,0,0.3,0,0.3c-0.3,0-0.8-0.1-1.3-0.1c-0.5,0-1,0-1.3,0C55.7,15,55.7,14.7,55.7,14.7z M48.1,15.4c-0.3,0-0.8,0.1-1.3,0.2
		c-0.5,0.1-1,0.2-1.3,0.2c-0.1,0-0.1-0.2-0.1-0.3c0.1,0,0.2-0.1,0.3-0.1c0.4-0.1,0.4-0.2,0.3-0.8c-0.1-0.9-0.3-1.8-0.4-2.7
		c-0.1-0.5-0.1-0.7-0.5-0.6c-0.1,0-0.3,0-0.4,0c-0.1,0-0.1-0.2-0.1-0.3c0.4-0.1,0.8-0.3,1.1-0.4c0.4-0.2,0.7-0.4,0.8-0.4
		c0,0,0.1,0,0.1,0.1c0,0.2,0.1,0.6,0.1,1c0.1,1,0.3,2.1,0.4,3.1c0.1,0.7,0.2,0.7,0.6,0.7c0.1,0,0.2,0,0.3,0
		C48.2,15.1,48.2,15.4,48.1,15.4z M52.6,14.2c-0.7,0.7-1.7,1.2-2.4,1.3c-0.1,0-0.1-0.2-0.1-0.3c1.6-0.5,2.4-1.9,2.3-3.4
		c0-0.6-0.3-1.8-1-1.8c-0.4,0-0.6,0.5-0.6,1c0,0.7,0.4,1.4,1,1.4c0.1,0,0.2,0,0.2,0c0,0,0.1,0.1,0.1,0.2c-0.1,0.2-0.5,0.3-0.8,0.3
		c-0.8,0-1.5-0.5-1.6-1.3c-0.1-1,0.7-1.9,1.9-1.9c1.4-0.1,2.2,0.9,2.2,2C53.7,12.6,53.3,13.5,52.6,14.2z M29.8,92.4
		c-4.3-4.9-8.6-11.1-12.2-18.9l23,12.9L29.8,92.4z M33.7,66.5h42L54.8,78.4L33.7,66.5z M54.5,110c-1.2-0.4-6.9-2.4-13.9-7.6
		l14.1-7.8l13.9,7.7C61.6,107.2,55.8,109.5,54.5,110z M79.7,92.5l-11-6.1l22.9-12.8C88.6,81.3,84.3,87.5,79.7,92.5z M94.5,65h-80
		c-3.6-13.6-2.5-28.1-2.2-31.2c0,0,9.9-1.5,22.8-6.8c8.3-3.4,17.5-8.2,19.5-9.2c1.6,0.9,8.3,4.5,19.2,9.2c10.9,4.7,20.5,6.4,23,6.8
		C96.9,33.8,99.2,47.7,94.5,65z"/>
	<g>
		<path fill="#FFFFFF" d="M31.1,36.2c-1.7-0.6-3,0.2-3,0.2s1.3-0.1,1.7,0.4c-0.6,0.1-1.1,0-2-0.1c-1.5-0.1-2.8,1.7-2.8,1.7
			s0.6-0.5,2.8-0.2c0.8,0.1,1.2,0,1.7-0.3c-0.8,1.1-2.3,0.8-2.3,0.8c1.4,0.4,2.1,0.1,2.5-0.1c1.6-0.8,1.4-1.2,3.3-2
			C33,36.7,32.3,36.6,31.1,36.2z"/>
		<g>
			<path fill="#FFFFFF" d="M90.6,38.1c-2-0.6-5-1.5-9.5,2.3c-4.2,3.6,1,4.9,2,8.1c0.4,1.4-2.4,1-5.8-0.9c-2.2-1.3-4.4-1.6-5.5-1.5
				c-0.1-1.8-3.5-2.4-3.3-2.4c1.3-0.4,2.2-0.8,3.1-1.4c-2.6,0-5.2-0.3-5.3-0.8c7.3,0.7,9.6-2.8,10-3.2c-2.5,0.5-6.7,0.8-6.9,0.3
				c1.8-0.1,9.5-1.8,8.6-5.3c-2.1,1.9-5.4,2.5-5.7,2.2c4.2-1.6,4.9-3.7,4.7-5.5c-2.4,2.8-4.7,3.7-6.3,4.2c-3,0.9-5.7,1.1-8.9,1.5
				c-3.1,0.4-7.8,0.8-10,1.4c-4.4,1.3-5.4,3.1-5.4,3.1s0.6-1.8,3-3c2.2-1.1,4.7-1.4,7.5-1.9c3.3-0.5,10.4-1.3,13.5-2.6
				c1.9-1.3,1.2-4.2,1.2-4.2c-0.5,1.6-2.5,3.1-2.9,3c1.1-1.3,1.7-2.6,1.5-4c-4.5,3.9-9.5,5.7-15.2,6.7c-3.6,0.7-7.4,1.3-9.7,4.4
				c-0.1,0.1-0.3,0.3-0.4,0.4c0,0,0,0,0,0c-0.4,0.4-0.8,0.5-0.8,0.2c0,0,0.7-2.1,0.5-4.2c-0.2-0.7-0.4-1.2-0.5-1.3
				c-0.1-0.1-0.3-0.6-0.4-1.5c0,0,0,0,0,0c-0.1-0.3-0.1-0.6-0.1-1c-0.1-1.3-1.6-3-1.7-3.2c-0.2-0.2-0.8,0.2-0.8,0.3
				c0.3,0.7,0,2.2,0,2.2c-0.7-1.1-1.5-1.5-1.5-1.5s-0.7-0.5-0.5,0.2c0.3,1.2-0.1,2.3-0.4,2.3c-1.6-0.1-3.2-0.2-4.3,0.1
				c-1,0.2-1.4,0.4-2,1.1c-0.2,0.2-0.3,0.2-1.5,0.4c-2.3,0.4-2.1,2.3-2.1,2.3c0,0,0,0.2,0.2,0.1c0.3-0.1,0.6-0.5,0.9-0.6
				c1.4-0.3,0.9,1,2.7,0.5c0.7-0.2,1.6-0.6,2.3,0.1c0.4,0.5,0.4,1.4-0.5,1.8c-0.4,0.2-0.7,0.1-1.2,0.2c-0.7,0.1-0.8,0.5-1.2,0.6
				c-0.6,0.2-1.3-0.1-1.4,0.1c-0.2,0.2,0.3,0.7,1.1,0.8c0.6,0.1,1.1-0.3,2.5-0.4c0.4,0,1.3-0.2,1.4,0c0.3,0.4,0.8,1-0.4,1.4
				c-1,0.3-2.1,0.6-3.4,1.4c-1,0.6-1.8,1.8-2.1,2.5c-0.6,0-1.1,0.3-1.5,1c-0.9,0.2-3.8,0.4-4.4,0.3c-0.1,0-0.6-0.3-0.6-0.3
				c0,0-0.3-0.3-0.3-0.7c0-1,0-2.6-0.2-2.8c-0.2-0.3-0.9-0.1-1,0c-0.1,0.1,0.1,0.2,0.2,0.4c0.1,0.1,0.2,0.6,0.2,1.2
				c0,0.2-0.1,0.4-0.2,0.4c0,0-0.2,0.1-0.4-0.1c-0.5-0.7-1.3-1.9-1.4-1.9c-0.2,0-0.7,0.7-0.7,0.8c0,0.2,0.4,0,0.6,0.2
				c0.1,0.1,0.6,0.8,0.9,1.5c0.1,0.3,0,0.4,0,0.4c0,0-0.2,0.1-0.4,0c-0.7-0.3-1.5-0.6-1.8-0.5c-0.4,0.1-0.5,0.8-0.5,1
				c0.1,0.3,0.5-0.1,0.6,0c0.1,0.1,1.3,0.4,2.1,0.8c0.3,0.1,0.3,0.2,0.5,0.5c0.1,0.2,0,0.4,0,0.7c0,0.2-0.2,0.3-0.3,0.9
				c-0.1,0.3-0.5,0.2-0.4,0.4c0.1,0.2,1.1,0.4,1.2,0.3c0.1-0.1,0.3-0.7,0.5-1.2c0.1-0.1,0.2-0.2,0.3-0.3c0.2-0.1,0.5-0.2,0.7-0.1
				c0.8,0.2,4,0.4,4.6,0.4c0.1,0.7,0.7,1.2,1.2,1.3c0.7,3.4,3,5,4.7,5.6c-0.4,1.2-0.2,2.4,0.7,3.1c-0.2,0.9-1,2.2-1.4,2.9
				c-0.1,0.2-3.4-0.2-3.7-0.1c-0.3,0.1-1,1-0.7,1.1c0.1,0.1,0.6-0.1,1.6-0.1c0.4,0,0.6,0,0.7,0.1c0.1,0.2-2.1,0.6-2.1,0.9
				c0,0.3,1.3,1,1.5,0.9c0.2-0.1-0.3-0.3,0.7-0.7c0.5-0.2,0.5-0.3,1-0.3c0.3,0-0.2,0.3-0.5,0.6c-0.2,0.2-0.1,0.3,0,0.4
				c0.1,0.1,1,0.5,1.3,0.6c0.2,0,0-0.4,0.3-0.6c0.7-0.6,1.4-1.3,1.4-1.3c0.3-0.3,0.8-0.6,1.9-0.6c0.1,0,0.9,0,1.3,0.1
				c0.2,0.1,0.2,0.3,0.4,0.2c0.2-0.1,0.7-1.3,0.2-1.3c-0.2,0-1,0.2-2.4-0.1c-0.3-0.1-0.1-0.6,0-0.7c0.2-0.6,0.5-1.2,0.7-1.7
				c0.7-0.2,1.4-0.6,1.9-1.3c0.3-0.5,0.5-1,0.6-1.5c5.6,0.2,9.2-1.6,10.9-2.2c1.7-0.6,3.8-1.2,6.9-0.7c0,0-5.4,3.6-0.7,5.6
				c0.8,0.3,0.9,0.3,0.9,0.7c0,0.7-1.8,2.1-2.2,2.2c-2.2,0.5-5.1,0.1-5.5,0.2c-0.6,0.1-0.7,1.1-0.7,1.1s1.4-0.3,1.8-0.1
				c0.2,0.1-1.1,0.5-1.5,0.8c-0.4,0.3,1.4,1.6,1.4,1.3c0-0.1-0.1-0.2,0.2-0.5c0.4-0.4,1.2-0.6,1.1-0.3c-0.2,0.8,0,1,0.1,1.1
				c0.1,0.1,1.5,0.3,2.2,0.2c0.8-0.1,0-0.4,0.1-0.7c0.1-0.3,0.1-0.6,0.9-1.1c1.3-0.9,3.2-0.4,3.5-0.7c0.1-0.1,0.8-1.5,1.9-2.6
				c0.9-0.8,2.2-1,1.9-1.3c-2.4-2.5-0.3-5,2.2-5.1c-0.9,0.2-4.3,4.9,1.4,5.6c1.7,0.2,2.7,0,5.2-0.9c1.3-0.4,2.5-0.3,3,0.2
				c0.6,0.6-1,2-1.5,2.5c-0.4,0.3-0.6,0.4-1.7,0.6c-1.6,0.2-3.5,0-4.5,0.1c-0.5,0-0.9,1.2-0.6,1.2c0.1,0,1.1-0.3,1.4-0.3
				c0.3,0,0.3,0.2,0.2,0.2c-0.3,0.1-1.2,0.5-1.4,0.7c-0.3,0.4,1.6,1.5,1.4,1.3c-0.1-0.1,0.1-0.5,0.4-0.7c0.4-0.3,1-0.5,1,0
				c-0.1,0.3,0,0.7,0.2,0.9c0.4,0.3,2.7,0.2,2.6,0.1c-0.2-0.1-0.5-0.5-0.2-0.8c1-1.3,2.5-1.4,3.4-1.4c0.4,0,0.7,0,1-0.3
				c2.5-2.7,3.7-7,3.1-6.9C77,55,77,54.7,74.4,54.6c-3.5-0.1-2.4-6.5-2.4-6.5c3-0.4,3.1,1.7,7.2,2.7c3.6,0.8,6.8-0.5,4.6-3.7
				c-0.2-0.3-1.7-2.1-2.7-2.8c-3-2.2,5.1-3.1,5.7-3.3c0.7-0.5-1.5-0.3-1.5-0.7c0.7,0,3.4-0.1,3.4-0.7c0-0.2-1.7-0.2-1.9-0.6
				C88.1,39,89.9,39.4,90.6,38.1z M38.8,33.6c-0.1,0-0.7-0.4-1-0.1c0,0-0.2,0.5-0.5,0.7c-0.2,0.1-0.7,0.2-1.1-0.1
				c-0.3-0.3-0.3-0.5-0.5-0.5c0,0-0.6,0.1-1.1-0.1c-0.3-0.1-0.3-0.1-0.3-0.1c0,0,0.2-0.5,0.4-0.5c0.4,0,0.2,0.2,0.7,0.2
				c0.4,0.1,0.9-0.1,1-0.1c0.3,0,1.2-0.4,1.8-0.2c0.2,0.1,0.5,0.2,0.6,0.3C38.9,33.2,38.9,33.5,38.8,33.6z M54,47.8
				c-1.3-0.7-2.1-2.4-1.6-1.8c1.4,1.5,4.3,1.3,4.3,1.3C57.2,47.5,55.8,48.7,54,47.8z M59.3,47.2c-1.6-0.5-2.8-2.3-2.1-1.7
				c1.8,1.5,5.1,0.8,5.1,0.8C62.9,46.3,61.4,47.9,59.3,47.2z M64.6,45.8c-1.9-0.2-3.6-1.9-2.7-1.4c2.4,1.2,5.8-0.3,5.8-0.3
				C68.3,44,67.1,46.1,64.6,45.8z"/>
		</g>
	</g>
</g>
<path fill="#FFFFFF" d="M121.1,45.9c0-4.1-0.2-4.5-2.3-4.7l-0.9-0.1c-0.2-0.1-0.1-0.8,0.1-0.9c2.1,0.1,3.4,0.1,4.9,0.1
	c1.5,0,2.7,0,4.2-0.1c0.2,0.1,0.3,0.8,0.1,0.9l-0.6,0.1c-2.2,0.3-2.2,0.8-2.2,4.7v12.8c0,2.9-0.1,5.4-0.8,7.1
	c-1.2,2.9-3.8,5.3-7.2,5.3c-0.4,0-1.6,0-1.6-0.8c0-0.6,0.6-1.7,1.3-1.7c0.4,0,0.9,0.1,1.4,0.2c0.5,0.1,0.8,0.3,1.3,0.3
	c0.8,0,1.2-0.4,1.5-1c0.8-1.7,1-7.2,1-9.2V45.9z"/>
<path fill="#FFFFFF" d="M143.3,65.3c7.1,0,12.8-5.4,12.8-12.9c0-6.5-4.3-12.6-12.8-12.6c-7.6,0-13.1,5.6-13.1,13
	C130.2,59.4,135.1,65.3,143.3,65.3 M143.8,64.1c-7.3,0-9.9-7.1-9.9-12.5c0-8.1,5-10.7,8.8-10.7c7,0,9.7,6.6,9.7,12.6
	C152.4,60.8,148.2,64.1,143.8,64.1"/>
<path fill="#FFFFFF" d="M177.8,52.8c1.8,0,1.8,0.1,1.8,1.2v5.2c-0.1,3.9,0,4.3-2.2,4.6l-0.7,0.1c-0.2,0.2-0.1,0.8,0.1,0.9
	c1.6-0.1,2.9-0.1,4.5-0.1c1.4,0,2.7,0,4.5,0.1c0.2-0.1,0.3-0.8,0.1-0.9l-0.9-0.1c-2.1-0.3-2.2-0.7-2.2-4.6V45.9
	c0-3.9,0.1-4.4,2.2-4.6l0.8-0.1c0.2-0.1,0.1-0.8-0.1-0.9c-1.7,0.1-2.9,0.1-4.3,0.1c-1.5,0-2.8,0-4.5-0.1c-0.2,0.1-0.3,0.8-0.1,0.9
	l0.7,0.1c2.2,0.2,2.2,0.8,2.2,4.6v4.2c0,1.1-0.1,1.2-1.8,1.2h-10.5c-1.8,0-1.8,0-1.8-1.2v-4.2c0-3.9,0.1-4.4,2.2-4.6l0.7-0.1
	c0.2-0.1,0.1-0.8-0.1-0.9c-1.6,0.1-2.8,0.1-4.3,0.1c-1.6,0-2.8-0.1-4.6-0.1c-0.2,0.1-0.3,0.8-0.1,0.9l1,0.1c1.9,0.1,2.2,0.8,2.2,4.6
	v13.3c0,3.9-0.1,4.2-2.1,4.6l-0.6,0.1c-0.2,0.2-0.1,0.8,0.1,0.9c1.4,0,2.7-0.1,4.3-0.1c1.4,0,2.7,0,4.7,0.1c0.2-0.1,0.3-0.8,0.1-0.9
	l-1.1-0.1c-2.1-0.2-2.2-0.7-2.2-4.6V54c0-1.1,0.1-1.2,1.8-1.2H177.8z"/>
<path fill="#FFFFFF" d="M212.8,49.6c0-1.7-0.1-6.3,0.6-7.6c0.2-0.3,0.9-0.6,2.1-0.8l0.5-0.1c0.2-0.2,0.2-0.7-0.1-0.9
	c-1.3,0.1-2.2,0.1-3.8,0.1c-1.4,0-2.7,0-4.4-0.1c-0.3,0.1-0.3,0.7-0.1,0.9l0.6,0.1c1.5,0.2,2.1,0.4,2.3,0.7c0.7,1.1,0.7,5.9,0.7,7.6
	v7.9c0,0.8,0,1.4-0.1,1.5h-0.1c-1.7-1.8-3.6-3.8-6.1-6.7l-3.6-4c-1.2-1.4-5.6-6.2-6.3-8.1c-0.5,0.1-1.1,0.1-1.7,0.1
	c-0.7,0-2.6,0-4.2-0.1c-0.3,0.1-0.3,0.7-0.1,0.9l0.6,0.1c0.9,0.1,1.8,0.4,2.3,0.9c0.8,0.8,0.8,1.6,0.8,2.7v10.6c0,1.8,0,6.3-0.5,7.6
	c-0.2,0.4-0.8,0.7-1.6,0.7l-1,0.1c-0.2,0.2-0.2,0.7,0.1,0.9c1.3-0.1,2.3-0.1,3.8-0.1c1.4,0,2.7,0,4.3,0.1c0.3-0.2,0.3-0.6,0.1-0.9
	l-1.1-0.1c-0.9-0.1-1.6-0.3-1.9-0.7c-0.6-1.1-0.7-5.9-0.7-7.6v-8c0-1.1,0-2,0.2-2.4h0.1c0.8,0.8,3.3,3.8,4.3,5l8.5,9.7
	c3.2,3.6,4.3,4.9,4.7,5.6c0.4,0,0.6-0.2,0.7-0.4c-0.1-1-0.1-5.3-0.1-6.4V49.6z"/>
<path fill="#FFFFFF" d="M234.1,58.5c0-3.5-2.3-5.6-4.6-7.1l-2.9-1.8c-1.4-0.9-3.1-2.4-3.1-4.5c0-1.7,0.8-4.1,4.4-4.1
	c3.5,0,4.5,2.4,5,4.2c0.2,0.2,0.8,0.1,0.9-0.1c0-1.5-0.3-3.6-0.7-4.5c-0.3,0-0.8-0.1-1.3-0.2c-1-0.3-2.3-0.5-3.4-0.5
	c-4.8,0-7.5,2.8-7.5,6.3c0,3,2.1,5.1,4,6.3l3.5,2.3c2.7,1.7,3,3.5,3,5.2c0,2.2-1.5,4.2-4.6,4.2c-4.3,0-5.8-3.6-6.3-5.5
	c-0.1-0.2-0.7-0.1-0.9,0.1c0.1,1.7,0.6,4.3,1,5.2c0.7,0.4,2.7,1.4,5.7,1.4C231,65.3,234.1,62.5,234.1,58.5"/>
<path fill="#FFFFFF" d="M251.6,65.3c7.1,0,12.8-5.4,12.8-12.9c0-6.5-4.3-12.6-12.8-12.6c-7.6,0-13.1,5.6-13.1,13
	C238.5,59.4,243.4,65.3,251.6,65.3 M252.1,64.1c-7.3,0-9.9-7.1-9.9-12.5c0-8.1,5-10.7,8.8-10.7c7,0,9.7,6.6,9.7,12.6
	C260.7,60.8,256.5,64.1,252.1,64.1"/>
<path fill="#FFFFFF" d="M290.5,49.6c0-1.7-0.1-6.3,0.6-7.6c0.1-0.3,0.9-0.6,2.1-0.8l0.5-0.1c0.2-0.2,0.2-0.7-0.1-0.9
	c-1.3,0.1-2.2,0.1-3.8,0.1c-1.4,0-2.7,0-4.3-0.1c-0.3,0.1-0.3,0.7-0.1,0.9l0.6,0.1c1.5,0.2,2.1,0.4,2.3,0.7c0.7,1.1,0.7,5.9,0.7,7.6
	v7.9c0,0.8,0,1.4-0.1,1.5h-0.1c-1.7-1.8-3.6-3.8-6.1-6.7l-3.6-4c-1.2-1.4-5.6-6.2-6.3-8.1c-0.5,0.1-1.1,0.1-1.7,0.1
	c-0.7,0-2.6,0-4.2-0.1c-0.3,0.1-0.3,0.7-0.1,0.9l0.6,0.1c0.9,0.1,1.8,0.4,2.3,0.9c0.8,0.8,0.8,1.6,0.8,2.7v10.6c0,1.8,0,6.3-0.5,7.6
	c-0.2,0.4-0.8,0.7-1.6,0.7l-1,0.1c-0.2,0.2-0.2,0.7,0.1,0.9c1.3-0.1,2.3-0.1,3.8-0.1c1.4,0,2.7,0,4.3,0.1c0.3-0.2,0.3-0.6,0.1-0.9
	l-1.1-0.1c-0.9-0.1-1.6-0.3-1.9-0.7c-0.6-1.1-0.7-5.9-0.7-7.6v-8c0-1.1,0-2,0.2-2.4h0.1c0.8,0.8,3.3,3.8,4.3,5l8.5,9.7
	c3.2,3.6,4.3,4.9,4.7,5.6c0.4,0,0.6-0.2,0.7-0.4c-0.1-1-0.1-5.3-0.1-6.4V49.6z"/>
<path fill="#FFFFFF" d="M318.6,62.9c-4.8,0-9.4-4.1-9.4-9c0-2.1,1.7-5,4-5c1.3,0,4.1,4.9,12,11.7C323.4,62.1,320.9,62.9,318.6,62.9
	 M322.4,40.4c0-0.3,0.1-1-0.4-1c-0.3,0-0.5,0.3-0.7,0.3c-0.2,0-1.6-1-3.9-1c-3,0-6,1.7-6,5c0,1.5,0.7,3,1.7,4.2
	c-3.9,0.9-5.9,3.9-5.9,7.8c0,5.7,4.8,9.3,10.2,9.3c3.6,0,6.4-1.3,9.1-3.7c2,1.6,4.1,3.7,6.8,3.7c1.2,0,3.1-0.6,3.1-1.2
	c0-0.1,0-0.3-0.3-0.3c-0.3,0-0.6,0.2-1.4,0.2c-1.7,0-5.1-3.6-6.5-4.7c1.2-2.1,1.5-4.5,1.7-6.8c0.2-1.6,1.6-1.2,1.6-1.8
	c0-0.4-0.2-0.4-0.5-0.4c-1.3,0-1.9,0.1-2.4,0.1c-0.5,0-1.8-0.1-3.2-0.1c-0.3,0-0.8-0.1-0.8,0.3c0,1.2,3.5-0.3,3.5,4
	c0,1.6-0.1,2.9-1.1,3.9c-8-7.4-13.4-13.2-13.4-15.7c0-1.8,1.4-3,3.1-3c2.2,0,4.2,2,5,3.9c0.1,0.2,0.2,0.7,0.6,0.7
	c0.1,0,0.4-0.1,0.4-0.3L322.4,40.4z"/>
<path fill="#FFFFFF" d="M390.5,61.1c0.3,0.9,0.5,1.5,0.5,2c0,0.4-0.5,0.6-1.3,0.7l-1.1,0.1c-0.3,0.2-0.2,0.8,0.1,0.9
	c1.1,0,2.5-0.1,4.2-0.1c1.7,0,2.9,0,4.5,0.1c0.2-0.2,0.3-0.7,0-0.9l-1-0.1c-1.6-0.2-2.1-0.7-3.1-3.9l-5-14.8
	c-0.6-1.6-1.1-3.3-1.6-4.9c-0.1-0.3-0.3-0.3-0.6-0.3c-0.4,0.5-1,1.1-1.9,1.4c0.1,0.6-0.1,1.3-0.6,2.6l-3.8,9.9
	c-1.5,4.1-2.6,6.5-3.2,8.2c-0.5,1.3-1.3,1.7-2.2,1.8l-1.2,0.1c-0.2,0.2-0.2,0.8,0.1,0.9c1,0,2.3-0.1,3.5-0.1c1.7,0,2.9,0,3.8,0.1
	c0.3-0.2,0.3-0.7,0.1-0.9l-1.2-0.1c-0.9-0.1-1.1-0.3-1.1-0.7c0-0.4,0.3-1.4,0.8-3.1l1.3-3.9c0.3-0.8,0.5-0.9,1.4-0.9h5.6
	c1.1,0,1.2,0.1,1.5,0.9L390.5,61.1z M383.9,46.4c0.4-1.1,0.8-2,0.9-2.2h0.1c0.2,0.4,0.5,1.4,0.8,2.3l2,6c0.3,1,0.3,1.1-0.8,1.1h-4.5
	c-1,0-1.1,0-0.8-0.9L383.9,46.4z"/>
<path fill="#FFFFFF" d="M403.8,59.2c0,3.9-0.1,4.4-2.2,4.6l-1.1,0.1c-0.2,0.2-0.1,0.8,0.1,0.9c2.1-0.1,3.2-0.1,4.8-0.1h3.4
	c3.8,0,7.3,0,9.2,0.1c0.5-1,1.5-4.8,1.5-5.2c0-0.3-0.7-0.4-0.9-0.2c-0.7,1.9-1.7,3.2-2.4,3.6c-0.6,0.3-1.4,0.5-4.5,0.5
	c-2.9,0-3.6-0.4-4-0.8c-0.7-0.7-0.8-1.7-0.8-4V45.9c0-3.9,0.1-4.5,2.2-4.6l0.9-0.1c0.2-0.1,0.1-0.8-0.1-0.9
	c-1.8,0.1-3.1,0.1-4.5,0.1c-1.5,0-2.7,0-4.8-0.1c-0.2,0.1-0.3,0.8-0.1,0.9l0.9,0.1c2.3,0.2,2.4,0.8,2.4,4.6V59.2z"/>
<path fill="#FFFFFF" d="M425.3,59.2c0,3.9-0.2,4.4-2.3,4.6l-1.2,0.1c-0.2,0.2-0.1,0.8,0.1,0.9c2.2-0.1,3.4-0.1,5-0.1h3.3
	c3.3,0,6.6,0,9.9,0.1c0.5-1,1.4-3.8,1.7-5.1c-0.2-0.3-0.7-0.4-0.9-0.3c-1,1.9-2,3.2-2.6,3.6c-0.8,0.4-1.9,0.6-4.7,0.6
	c-3.2,0-4-0.4-4.5-0.8c-0.6-0.6-0.7-1.9-0.7-3.8v-5.2c0-1,0.1-1,1.2-1h2.1c1.4,0,2.3,0,2.8,0.2c0.7,0.2,1,0.7,1.1,1.4l0.3,1.4
	c0.2,0.2,0.8,0.2,1,0c0-0.8-0.1-2.2-0.1-3.5c0-1.4,0.1-2.8,0.1-3.7c-0.1-0.3-0.8-0.3-1,0l-0.3,1.5c-0.2,0.9-0.4,1.1-0.9,1.3
	c-0.4,0.1-1.6,0.2-3.1,0.2h-2.1c-1.1,0-1.2,0-1.2-1V43c0-1.4,0-1.5,1.1-1.5h2.7c1.6,0,2.8,0,3.6,0.2c1.9,0.5,2.2,1.8,2.8,3.5
	c0.2,0.2,0.8,0.1,0.9-0.1c-0.2-1.6-0.4-4.3-0.6-4.9c-0.4,0.1-2.6,0.1-5,0.1h-6.9c-1.5,0-2.8,0-4.3-0.1c-0.2,0.1-0.3,0.8-0.1,0.9
	l0.6,0.1c2.2,0.3,2.2,0.8,2.2,4.6V59.2z"/>
<path fill="#FFFFFF" d="M459.4,58.5c0-3.5-2.3-5.6-4.6-7.1l-2.9-1.8c-1.4-0.9-3.1-2.4-3.1-4.5c0-1.7,0.8-4.1,4.4-4.1
	c3.5,0,4.5,2.4,5,4.2c0.2,0.2,0.8,0.1,0.9-0.1c0-1.5-0.3-3.6-0.7-4.5c-0.3,0-0.8-0.1-1.3-0.2c-1-0.3-2.3-0.5-3.4-0.5
	c-4.8,0-7.5,2.8-7.5,6.3c0,3,2.1,5.1,4,6.3l3.5,2.3c2.7,1.7,3,3.5,3,5.2c0,2.2-1.5,4.2-4.6,4.2c-4.3,0-5.8-3.6-6.3-5.5
	c-0.1-0.2-0.7-0.1-0.9,0.1c0.1,1.7,0.6,4.3,1,5.2c0.7,0.4,2.7,1.4,5.8,1.4C456.3,65.3,459.4,62.5,459.4,58.5"/>
<path fill="#FFFFFF" d="M131.1,81.9h-1.8v7.3c0,1.2-0.1,2.1-0.8,2.7c-0.6,0.6-1.6,1-2.9,1c-1.1,0-2-0.3-2.7-1.1
	c-0.6-0.6-0.8-1.2-0.8-2.6v-7.4h-1.8v7.8c0,3.4,2.6,4.9,5.2,4.9c3.7,0,5.5-2,5.5-5.1V81.9z"/>
<polygon fill="#FFFFFF" points="164.1,81.9 162.4,81.9 162.4,91.5 154,81.9 152.6,81.9 152.6,94.3 154.2,94.3 154.2,84.7 
	162.6,94.3 164.1,94.3 "/>
<g>
	<rect x="185.9" y="81.9" fill="#FFFFFF" width="1.8" height="12.5"/>
</g>
<polygon fill="#FFFFFF" points="219.1,81.9 217.3,81.9 213.6,90.6 209.8,81.9 208,81.9 213.4,94.5 213.8,94.5 "/>
<polygon fill="#FFFFFF" points="246.5,81.9 239.4,81.9 239.4,94.3 246.7,94.3 246.7,92.7 241.2,92.7 241.2,88.9 246.3,88.9 
	246.3,87.2 241.2,87.2 241.2,83.5 246.5,83.5 "/>
<path fill="#FFFFFF" d="M267.6,81.9v12.5h1.8v-5.4h0.8c0.9,0,1.7,0.3,3.3,2.9l1.6,2.6h2.1c-0.9-1.2-1.2-1.6-1.7-2.5
	c-1-1.6-1.6-2.7-2.8-3.5c1.3-0.5,2.1-1.6,2.1-3.1c0-2.2-1.6-3.5-4.1-3.5H267.6z M269.4,83.4h1.2c1.7,0,2.4,0.7,2.5,1.9
	c0,1-0.5,2-2.5,2h-1.2V83.4z"/>
<path fill="#FFFFFF" d="M303.5,82.6c-0.9-0.6-1.8-0.9-2.8-0.9c-2.3,0-3.8,1.3-3.8,3.3c0,3.4,5.4,3.7,5.4,6.3c0,0.7-0.6,1.6-2,1.6
	c-1.2,0-2.4-0.6-3.3-1.8v2.3c1,0.8,2.1,1.2,3.5,1.2c2,0,3.5-1.4,3.5-3.4c0-4-5.4-3.9-5.4-6.3c0-0.9,0.8-1.5,2-1.5
	c0.8,0,1.9,0.3,2.9,1.3V82.6z"/>
<g>
	<rect x="324.9" y="81.9" fill="#FFFFFF" width="1.8" height="12.5"/>
</g>
<polygon fill="#FFFFFF" points="357.8,81.9 347.4,81.9 347.4,83.5 351.7,83.5 351.7,94.3 353.5,94.3 353.5,83.5 357.8,83.5 "/>
<g>
	<polygon fill="#FFFFFF" points="382.6,86.2 379.3,81.9 377.1,81.9 381.7,87.7 381.7,94.3 383.5,94.3 383.5,87.8 388.2,81.9 
		386,81.9 	"/>
</g>
<path fill="#FFFFFF" d="M376.7,40.2c-0.1,0-0.1,0-0.2,0v0c-0.2,0-0.4,0-0.6,0c-0.7,0-1.6,0.1-2.6,0.1c-1.1,0-2,0-3.3-0.1
	c0,0-0.1,0-0.1,0v0c0,0-0.1,0-0.1,0c-0.3,0.1-0.3,0.5,0,0.9l1,0.1c0.8,0,1.3,0.3,1.3,0.8c0,0.1,0.1,0.5-0.2,1.3l-4.9,15.9h-0.1
	l-5.2-15.6c-0.2-0.8-0.5-1.5-0.5-1.7c0-0.5,0.4-0.6,1.2-0.7l0.8-0.1c0.2-0.3,0.3-0.8-0.1-0.9c-1.3,0.1-2.8,0.1-3.8,0.1
	c-1.1,0-3.2,0-4.2-0.1c-0.3,0.1-0.3,0.6-0.1,0.9l0.9,0.1c1.1,0.1,1.6,0.7,1.8,1.3c0,0.1,1.6,4.5,1.6,4.5l-4.2,12.2h-0.1l-5.1-15.3
	c-0.4-1.1-0.6-1.6-0.6-2c0-0.6,0.6-0.6,1.3-0.7l0.7-0.1c0.2-0.3,0.3-0.8-0.1-0.9c-1.3,0.1-2.4,0.1-3.4,0.1c-1.1,0-3.6,0-4.5-0.1
	c-0.3,0.1-0.3,0.6-0.1,0.9l0.8,0.1c1.3,0.1,1.7,0.6,2,1.6c0,0.1,7.8,22.1,7.8,22.1s0.1,0.2,0.4,0.2c0.3,0,0.3-0.2,0.3-0.2l5.6-15.6
	h0.1l5.5,15.6c0,0,0.1,0.2,0.4,0.2c0.2,0,0.3-0.2,0.3-0.2l7.2-21.7c0.6-1.7,1.3-1.8,2.3-1.9l0.7-0.1C377.1,40.7,377,40.3,376.7,40.2
	z"/>
</svg>
