<?xml version="1.0" encoding="utf-8"?>
<!-- Generator: Adobe Illustrator 18.0.0, SVG Export Plug-In . SVG Version: 6.00 Build 0)  -->
<!DOCTYPE svg PUBLIC "-//W3C//DTD SVG 1.1//EN" "http://www.w3.org/Graphics/SVG/1.1/DTD/svg11.dtd">
<svg version="1.1" id="Layer_1" xmlns="http://www.w3.org/2000/svg" xmlns:xlink="http://www.w3.org/1999/xlink" x="0px" y="0px"
	 viewBox="0 0 1280 372" enable-background="new 0 0 1280 372" xml:space="preserve">
<g>
	<path fill="#FFFFFF" d="M54.1,169c0-13.5,0-15.2-8.7-21.5l-2.9-2.1c-1.3-1.4-1.3-5.2,0.3-6.2c7.4-2.8,25.9-11.8,33.3-17
		c1.6,0,2.9,0.7,3.2,2.1c-0.6,12.1-1.3,28.8-1.3,43v83.9c0,25-2.3,42.3-6.8,54.1c-9.7,25-26.8,41.6-49.1,56.5
		c-3.9-0.7-5.8-4.5-4.5-8c8.4-4.5,14.5-10.1,19.1-15.6c11.6-14.6,17.5-39.5,17.5-81.8V169z M80.9,70.2c0,12.1-8.1,18-17.1,18
		c-10,0-16.5-8-16.5-17.7c0-11.4,7.8-18.4,17.5-18.4C74.5,52.2,80.9,60.5,80.9,70.2z"/>
	<path fill="#FFFFFF" d="M121,165.5c-7.4-19.4-11.3-22.9-19.4-25l-5.2-1.4c-1.6-1.7-1.9-6.9,1-8.3c10,0.7,19.1,1,28.8,1
		c10,0,19.4-0.3,28.1-1c2.6,1.4,2.9,6.6,0.6,8.3l-7.4,1.4c-4.5,0.7-7.1,2.8-7.1,4.9c0,2.1,1.6,8.7,5.2,18l20,53
		c2.9,8,5.8,14.2,5.8,14.9c1-0.7,3.6-6.6,7.4-16.6l15.8-41.9c4.2-11.1,4.5-15.6,2.9-20.1c-2.9-7.6-7.8-10.4-14.9-12.1l-5.2-1.4
		c-2.3-2.1-1.6-7.3,1-8.3c8.1,0.7,18.4,1,26.8,1c10,0,19.7-0.3,30.7-1c2.9,1,2.9,6.6,1,8.3l-6.8,1.4c-12.9,2.8-12.3,3.8-8.4,15.9
		c3.6,11.4,21,55.4,24.6,64.8c1.9,5.2,3.2,9,4.2,9.7c0.6-0.7,2.3-4.2,4.5-9.7c4.2-10.1,17.1-46.8,22-61.3c2.6-8,3.2-12.5,3.2-14.9
		c0-2.1-1.9-3.8-5.8-4.5l-8.1-1.4c-2.6-1.7-1.9-7.3,0.3-8.3c9.4,0.7,17.5,1,25.5,1c6.1,0,13.9-0.3,21-1c2.6,1.4,2.9,6.6,1,8.3
		l-6.5,1.4c-7.8,1.7-10.7,6.6-17.5,21.8c-8.7,19.4-24.2,61-30.4,78.7c-4.5,12.5-8.4,22.5-11,31.5c-1.3,1-2.6,1.4-4.2,1.4
		c-1.3,0-2.6-0.3-3.6-1.4c-1.9-6.2-7.8-24.3-13.3-38.1l-15.5-39.8c-2.3-6.2-7.1-17.7-7.4-17.7c-0.3,0-4.9,10.7-7.1,17l-16.8,43.3
		c-5.8,14.9-10.3,27.4-12.9,35.3c-1,1-2.3,1.4-3.9,1.4c-1.3,0-2.9-0.3-3.9-1.4c-1.9-7.3-7.1-21.5-9.7-28.8L121,165.5z"/>
	<path fill="#F9F9F9" d="M361.5,217.5c0,23.9,5.5,39.8,30.1,39.8c8.7,0,19.1-3.8,26.2-10.4c4.2-4.2,6.5-9.4,6.5-20.1V170
		c0-22.5-2.3-23.2-12-27.4l-4.2-1.7c-2.3-1.4-2.3-6.2,0.3-7.6c12.9-0.3,30.7-2.8,37.8-6.2c1.6,0.4,2.6,1,2.9,2.4
		c-0.6,6.6-1,17.3-1,30.2v58.2c0,27.4,1,37.8,10,37.8c3.9,0,8.1-0.7,12.6-1.7c1.9,1.7,2.3,8.7-0.3,10.1
		c-12.6,2.8-31.4,6.2-42.3,12.8c-1.6,0-3.2-1-3.9-2.4v-14.2c0-3.1-1-4.9-2.9-4.9c-9.7,6.6-25.5,18-44.6,18
		c-28.4,0-39.1-15.2-39.1-43.3v-57.9c0-21.8,0-25-9.7-29.5l-3.9-1.7c-1.9-1.7-1.6-6.6,0.6-7.6c14.9-0.3,27.5-3.5,34.6-6.2
		c1.9,0.4,2.9,1,3.2,2.4c-0.6,5.9-1,13.2-1,30.2V217.5z"/>
	<path fill="#FF6C0C" stroke="#FF6C0C" stroke-width="5.5786" stroke-miterlimit="10" d="M513.8,268.4h-15.5V32.1h15.5V268.4z"/>
	<path fill="#FF6C0C" stroke="#FF6C0C" stroke-width="5.5786" stroke-miterlimit="10" d="M570,60.5h-15.2V32.1H570V60.5z M570,268.4
		h-15.2V112.8H570V268.4z"/>
	<path fill="#FF6C0C" stroke="#FF6C0C" stroke-width="5.5786" stroke-miterlimit="10" d="M608.5,32.1H624V135
		c11.3-10.7,26.8-25.3,52.4-25.3c31.3,0,64.6,23.9,64.6,75.9c0,51.3-31.3,85.9-81.1,85.9c-24.2,0-41.7-7.6-51.4-11.8V32.1z M624,248
		c16.5,6.6,28.5,7.6,35.9,7.6c38.5,0,64.7-29.8,64.7-68.3c0-30.8-17.8-63.1-50.1-63.1c-25.2,0-41.7,19.1-50.4,29.5V248z"/>
	<path fill="#FF6C0C" stroke="#FF6C0C" stroke-width="5.5786" stroke-miterlimit="10" d="M861,143.7c-7.4-6.9-18.1-17-28.8-17
		c-16.8,0-34.3,21.8-46.9,44v97.7h-15.5V112.8h15.5v40.9c6.1-10,27.5-44,51.7-44c13.6,0,25.5,11.4,33,18.4L861,143.7z"/>
	<path fill="#FF6C0C" stroke="#FF6C0C" stroke-width="5.5786" stroke-miterlimit="10" d="M1001.3,255.2
		c-13.6,10.4-22.6,16.3-29.1,16.3c-9,0-9.7-7.6-10.7-19.4c-7.4,6.2-23.3,19.4-45.6,19.4c-21.3,0-39.4-17-39.4-39.2
		c0-50.9,65-56.1,85-57.2v-19.8c0-18-7.8-30.8-32-30.8c-17.5,0-29.1,6.6-44.6,18.7v-17c8.7-5.6,24.9-16.6,46.5-16.6
		c12,0,28.1,3.8,36.5,13.9c8.4,10.1,9.1,18.4,9.1,36.4v79.7c0,4.5,0,12.8,0.3,13.9c0.3,0.7,1,1.7,2.9,1.7c4.5,0,16.8-10.1,21-13.9
		V255.2z M961.5,188.7c-9,0.3-26.2,0.7-39.8,6.6c-14.6,6.2-29.4,18.4-29.4,37.1c0,18.4,17.5,25.6,28.8,25.6
		c18.4,0,32-12.1,40.4-20.4V188.7z"/>
	<path fill="#FF6C0C" stroke="#FF6C0C" stroke-width="5.5786" stroke-miterlimit="10" d="M1111.5,143.7c-7.4-6.9-18.1-17-28.8-17
		c-16.8,0-34.3,21.8-46.9,44v97.7h-15.5V112.8h15.5v40.9c6.1-10,27.5-44,51.7-44c13.6,0,25.5,11.4,33,18.4L1111.5,143.7z"/>
	<path fill="#FF6C0C" stroke="#FF6C0C" stroke-width="5.5786" stroke-miterlimit="10" d="M1154.2,348.1h-15.8l50.8-109.9L1128,112.8
		h15.8l53,108.8l50.1-108.8h15.8L1154.2,348.1z"/>
</g>
</svg>
