<svg xmlns="http://www.w3.org/2000/svg"><symbol id="arrow-down-white" viewBox="0 0 44.2 21.8"><path d="M22.1 21.8c-.2 0-.5-.1-.7-.3L.3 1.7C-.1 1.3-.1.7.3.3c.4-.4 1-.4 1.4 0l20.4 19.2L42.5.3c.4-.4 1-.4 1.4 0 .4.4.4 1 0 1.4L22.8 21.5c-.2.2-.5.3-.7.3z" fill="#fff"/></symbol><symbol id="arrow-down" viewBox="0 0 44.2 21.8"><path d="M22.1 21.8c-.2 0-.5-.1-.7-.3L.3 1.7C-.1 1.3-.1.7.3.3c.4-.4 1-.4 1.4 0l20.4 19.2L42.5.3c.4-.4 1-.4 1.4 0 .4.4.4 1 0 1.4L22.8 21.5c-.2.2-.5.3-.7.3z"/></symbol><symbol id="arrow-up" viewBox="0 0 44.2 21.8"><path d="M22.1 0c-.2 0-.5.1-.7.3L.3 20.1c-.4.4-.4 1 0 1.4.4.4 1 .4 1.4 0L22.1 2.3l20.4 19.2c.4.4 1 .4 1.4 0 .4-.4.4-1 0-1.4L22.8.3c-.2-.2-.5-.3-.7-.3z"/></symbol><symbol id="bars" viewBox="0 0 1536 1280"><path d="M1536 1088v128q0 26-19 45t-45 19H64q-26 0-45-19t-19-45v-128q0-26 19-45t45-19h1408q26 0 45 19t19 45zm0-512v128q0 26-19 45t-45 19H64q-26 0-45-19T0 704V576q0-26 19-45t45-19h1408q26 0 45 19t19 45zm0-512v128q0 26-19 45t-45 19H64q-26 0-45-19T0 192V64q0-26 19-45T64 0h1408q26 0 45 19t19 45z"/></symbol><symbol id="chevron-down-double" viewBox="0 0 20.4 19.904279"><path d="M4.598 0l5.6 5.6 5.6-5.6 3 3.1-8.6 8.6-8.7-8.7z"/><path d="M10.1 19.904L0 9.704l3.1-3.1 7.1 7.1 7.1-7.1 3.1 3.1z"/></symbol><symbol id="envelope" viewBox="0 0 1792 1792"><path d="M1792 710v794q0 66-47 113t-113 47H160q-66 0-113-47T0 1504V710q44 49 101 87 362 246 497 345 57 42 92.5 65.5t94.5 48 110 24.5h2q51 0 110-24.5t94.5-48 92.5-65.5q170-123 498-345 57-39 100-87zm0-294q0 79-49 151t-122 123q-376 261-468 325-10 7-42.5 30.5t-54 38-52 32.5-57.5 27-50 9h-2q-23 0-50-9t-57.5-27-52-32.5-54-38T639 1015q-91-64-262-182.5T172 690q-62-42-117-115.5T0 438q0-78 41.5-130T160 256h1472q65 0 112.5 47t47.5 113z"/></symbol><symbol id="facebook" viewBox="0 0 1792 1792"><path d="M1343 12v264h-157q-86 0-116 36t-30 108v189h293l-39 296h-254v759H734V905H479V609h255V391q0-186 104-288.5T1115 0q147 0 228 12z"/></symbol><symbol id="graduation-cap" viewBox="0 0 1792 1792"><path d="M1518 836l18 316q4 69-82 128t-235 93.5-323 34.5-323-34.5-235-93.5-82-128l18-316 574 181q22 7 48 7t48-7zm530-324q0 23-22 31L906 895q-4 1-10 1t-10-1L234 689q-43 34-71 111.5T129 979q63 36 63 109 0 69-58 107l58 433q2 14-8 25-9 11-24 11H-32q-15 0-24-11-10-11-8-25l58-433q-58-38-58-107 0-73 65-111 11-207 98-330l-333-104q-22-8-22-31t22-31L886 129q4-1 10-1t10 1l1120 352q22 8 22 31z"/></symbol><symbol id="instagram-old" viewBox="0 0 1792 1792"><path d="M1490 1426V778h-135q20 63 20 131 0 126-64 232.5T1137 1310t-240 62q-197 0-337-135.5T420 909q0-68 20-131H299v648q0 26 17.5 43.5T360 1487h1069q25 0 43-17.5t18-43.5zm-284-533q0-124-90.5-211.5T897 594q-127 0-217.5 87.5T589 893t90.5 211.5T897 1192q128 0 218.5-87.5T1206 893zm284-360V368q0-28-20-48.5t-49-20.5h-174q-29 0-49 20.5t-20 48.5v165q0 29 20 49t49 20h174q29 0 49-20t20-49zm174-208v1142q0 81-58 139t-139 58H325q-81 0-139-58t-58-139V325q0-81 58-139t139-58h1142q81 0 139 58t58 139z"/></symbol><symbol id="instagram" viewBox="0 0 504.000000 504.000000"><path d="M164.9.5c-.2.2-6.9.6-14.9.9-8 .4-15.7.8-17 1.1-1.4.2-4.7.6-7.5 1C65.4 11 21.8 48.4 7.6 104.7c-2.5 9.8-3 12.5-4.2 21.8-.3 2.7-.8 6.1-1 7.5C1 142.8.5 176.3.5 253.5c0 89.3.5 110.1 3.1 125.5.2 1.4.7 4.5 1 7 1 7.3 5.1 22.2 8.5 30.7 6.8 17.2 15.5 30.8 27.8 43.7 20.8 21.5 52.4 36.5 85.1 40.1 3 .4 6.6.8 8 1.1 17 2.7 220 2.7 236 0 1.4-.2 4.9-.7 7.9-1 59.6-6.7 104.2-44.8 118.5-101.3 2.4-9.3 3-12.7 4.2-21.8.3-2.2.7-5 .9-6.3 2.7-17.1 2.8-221.8.1-237.2-.2-1.4-.7-4.8-1-7.5-3.5-31-16.3-60.3-35.6-80.8-18.5-19.8-40.9-32.3-69.5-39-10.9-2.6-14.5-3.1-26-4.2-3.3-.3-8.5-.8-11.5-1.1C352.1.7 165.5-.1 164.9.5zm171.6 45.9c21.8.8 28.4 1.2 33.8 2.1 2.3.4 5.6.9 7.2 1.1 33.2 5.2 58.7 24.2 70.1 52.4 2.8 7 5.9 18.4 6.9 25.2.3 2.4.8 5.6 1.1 7.2 1.8 8.7 2.7 49.9 2.7 117.1 0 72.3-.8 106-2.8 119.5-.3 2.1-.8 5.3-1 7.1-.7 5.6-5.3 20.5-8.5 27.5-7.7 17.1-23.2 32.5-40.3 40.3-13.1 6-26.4 9.2-44.7 10.6-31.8 2.6-192 2.5-219-.1-24.5-2.3-43-8.2-56.5-17.8-23-16.5-35.2-41.3-38-77.2-2.4-31.9-2.5-203.1 0-218.7.2-1.2.6-5.3 1-9.1.9-9.7 4.7-23.9 8.9-33.6 7.9-18.3 23.3-34 41-42 6.5-3 17.9-6.7 23-7.5 1.7-.3 3.8-.8 4.6-1 5.2-1.4 14.9-2.1 42.5-3 12.1-.4 22.1-.8 22.2-.9.5-.4 131.2.2 145.8.8z"/><path d="M377 88.9c-10.2 3.7-16.7 10.5-19.5 20.4-4 14.3 2.4 28.6 15.7 35.5 4.5 2.2 6.5 2.6 13.3 2.6 9.3-.1 14.5-2.1 20.6-7.9 11.5-10.9 12.7-28.6 2.9-40.9-4.3-5.3-8-7.8-14.5-9.8-6.5-2-12.9-2-18.5.1zM239.5 123.2c-41.1 3.7-78.4 27.7-99.6 63.9-8.6 14.8-14.7 33.3-16.5 50.2-3.6 33.7 5.2 66 25.2 92.6 43.3 57.6 126.2 68.6 182.9 24.2 27.2-21.2 44.5-51.7 49.1-86.6.9-6.4.9-25.5 0-32-6.9-51.2-43.3-93.6-92.6-107.8-4.7-1.4-10.3-2.7-12.5-3-2.2-.4-5.3-.9-7-1.2-5-.9-20.5-1.1-29-.3zm31.6 47.3c38.8 9.6 65.4 44 64.4 83-.5 17.9-4 29.3-13.3 44-11 17.3-29.7 30.6-51.2 36.2-9.1 2.3-29.1 2.3-38.5-.2-31.6-8.1-55-32.1-62.5-64-2.1-9-1.9-28.5.4-37 5-18.6 14.4-33.5 28.6-45.3 11-9.1 30-17.1 44-18.5 7-.7 21.9.2 28.1 1.8z"/></symbol><symbol id="linkedin" viewBox="0 0 1792 1792"><path d="M477 625v991H147V625h330zm21-306q1 73-50.5 122T312 490h-2q-82 0-132-49t-50-122q0-74 51.5-122.5T314 148t133 48.5T498 319zm1166 729v568h-329v-530q0-105-40.5-164.5T1168 862q-63 0-105.5 34.5T999 982q-11 30-11 81v553H659q2-399 2-647t-1-296l-1-48h329v144h-2q20-32 41-56t56.5-52 87-43.5T1285 602q171 0 275 113.5t104 332.5z"/></symbol><symbol id="logo-full" viewBox="0 0 382.2815 75.7"><path d="M82.976 48.3c-1.6 0-1.9-.7-1.9-1.1 0-.8.7-2 1.6-2 .5 0 .9.1 1.4.2h.2c.4.1.6.2 1 .2.5 0 .8-.2 1.1-.7.6-1.3.9-5.5.9-8.7V23.6c0-4-.2-4-1.9-4.2l-1-.1-.1-.1c-.2-.1-.3-.4-.3-.8 0-.1.1-.6.4-.8h.2c1.9.1 3.2.1 4.7.1 1.3 0 2.5 0 4-.1h.2c.3.2.4.6.4.8 0 .3-.1.6-.3.8h-.1l-.6.1c-1.8.2-1.8.4-1.8 4.2v12.3c0 2.5-.1 5.2-.8 7-1.4 3.4-4.2 5.5-7.3 5.5zm24.9-26.8c-6.5 0-11.4 4.9-11.4 11.3 0 5.4 3.9 10.9 11.4 10.9 6.3 0 11.1-4.8 11.1-11.2 0-5.3-3.5-11-11.1-11zm.4 20.1c-6.1 0-7.7-6.2-7.7-9.9 0-6.1 3.6-8.3 6.8-8.3 5.6 0 7.5 5.4 7.5 9.9 0 6.2-3.5 8.3-6.6 8.3zm36.3-.1l-1-.2c-1.3-.2-1.4-.2-1.4-3.3V27c0-3.2.1-3.2 1.4-3.3l.7-.1.2-.1c.2-.2.4-.5.3-.8 0-.1-.1-.6-.5-.8l-.1-.1h-.1c-1.4.1-2.4.1-3.6.1-1.2 0-2.2 0-3.7-.1h-.1l-.1.1c-.4.2-.4.7-.5.8 0 .4.1.7.3.8h.1l.7.1c1.3.1 1.4.1 1.4 3.3v3.9h-10.7v-3.9c0-3.2.1-3.2 1.4-3.3l.7-.1.1-.1c.2-.2.4-.5.3-.8 0-.1-.1-.6-.5-.8l-.1-.1h-.1c-1.4.1-2.4.1-3.5.1H122.276l-.2.1c-.4.2-.4.6-.5.8 0 .4.1.7.3.8h.1l1 .1c1.1.1 1.3.1 1.3 3.3v11c0 3.1 0 3.1-1.3 3.3l-.7.1-.1.1c-.2.3-.3.6-.2.9.1.3.2.5.4.7l.1.1h1.1c.8 0 1.6-.1 2.5-.1 1.2 0 2.3 0 3.9.1h.1l.1-.1c.4-.2.4-.7.5-.8 0-.4-.1-.7-.3-.8h-.1l-1.1-.1c-1.3-.1-1.4-.1-1.4-3.3v-4.3-.4h10.7v5c-.1 2.8-.1 2.8-1.4 3l-.7.1-.1.1c-.2.3-.3.6-.2.9.1.3.2.6.4.7l.1.1h.1c1.4-.1 2.5-.1 3.7-.1 1.1 0 2.1 0 3.7.1h.1l.1-.1c.4-.2.4-.6.5-.8.2-.3.1-.6-.2-.8zm26.6-18.8c0-.3-.2-.6-.4-.7l-.1-.1h-.2c-1 .1-1.8.1-3.1.1-1.1 0-2.1 0-3.6-.1h-.2c-.3.1-.5.3-.5.7-.1.4.1.7.3 1l.1.1.7.1c1.3.2 1.5.4 1.5.4.1.2.5 1.2.5 6v6.7c-1.2-1.3-2.6-2.8-4.3-4.8l-3.4-3.8c-1.1-1.3-4.2-4.8-4.7-6.1l-.1-.4-.4.1c-.4.1-.8.1-1.3.1s-2.1 0-3.4-.1h-.1l-.1.1c-.2.1-.4.4-.5.7-.1.3 0 .7.3.9l.1.1.7.1c.7.1 1.3.3 1.6.6.5.6.5 1 .5 1.9v9.1c0 1.3 0 4.9-.4 5.8 0 .1-.3.3-.9.3l-1 .1-.1.1c-.2.2-.3.5-.3.8 0 .3.2.6.4.7l.1.1h.2c1.2-.1 2-.1 3.1-.1s2.1 0 3.5.1h.2l.1-.1c.2-.1.3-.4.4-.6 0-.3 0-.6-.2-.8l-.1-.2-1.2-.1c-1-.1-1.1-.3-1.1-.3-.3-.6-.5-3.5-.5-6.1v-6.6-.9c.5.5 1 1.2 1.6 1.9l.3.3c.4.4.7.8.9 1.1l7.1 8.1c2.3 2.7 3.5 4 3.9 4.6l.2.2h.3c.5 0 .9-.3 1.1-.7v-.2c0-.3-.1-1.5-.1-5.3v-7.7c0-1.4 0-4.7.4-5.6.1-.1.4-.3 1.4-.4l.6-.1.1-.1c.1-.4.2-.7.1-1zm12.2 8.5l-2.4-1.5c-1.6-1-2.4-2.1-2.4-3.3 0-1.3.5-2.9 3.1-2.9 2.5 0 3.2 1.5 3.7 3.1v.1l.1.1c.2.2.4.3.7.3.3 0 .7-.1.9-.4l.1-.1v-.2c0-1.3-.3-3.1-.6-3.9l-.1-.3h-.4c-.2 0-.7-.1-.9-.2-.8-.3-2-.4-3-.4-4 0-6.7 2.4-6.7 5.8 0 2.8 1.9 4.6 3.5 5.7l2.9 1.9c2.1 1.4 2.3 2.7 2.3 3.8 0 1.4-.9 3-3.3 3-2.9 0-4.2-2.3-4.8-4.2l-.1-.1c-.1-.2-.4-.3-.7-.3-.3 0-.7.1-.9.4l-.1.1v.2c.1 1.5.5 3.7.9 4.5l.1.1.1.1c.8.4 2.5 1.2 5 1.2 4.2 0 7-2.5 7-6.2 0-2.7-1.3-4.8-4-6.4zm56-8.5c0-.3-.2-.6-.4-.7l-.1-.1h-.2c-1 .1-1.8.1-3.1.1-1.1 0-2.1 0-3.6-.1h-.2c-.3.1-.5.3-.5.7-.1.4 0 .7.3 1l.1.1.7.1c1.3.2 1.5.3 1.5.4.1.2.5 1.2.5 6v6.7c-1.2-1.3-2.5-2.7-4.3-4.8l-2.9-3.3-.4-.5c-1.1-1.3-4.2-4.8-4.7-6.1l-.2-.4-.4.1c-.4.1-.8.1-1.3.1s-2.1 0-3.4-.1h-.1l-.1.1c-.2.1-.4.4-.5.7-.1.3.1.7.3.9l.1.1.7.1c.7.1 1.3.3 1.6.6.5.6.5 1 .5 1.9v9.1c0 1.3 0 4.9-.4 5.8 0 .1-.3.3-.9.3l-1 .1-.1.1c-.2.2-.3.5-.3.8 0 .3.2.6.4.7l.1.1h.2c1.2-.1 2-.1 3.1-.1s2.1 0 3.5.1h.2l.1-.1c.2-.1.3-.4.4-.6 0-.3 0-.6-.2-.8l-.1-.2-1.2-.1c-1-.1-1.1-.3-1.1-.3-.3-.6-.5-3.5-.5-6.1v-6.6-.9c.5.5 1.1 1.2 1.6 1.9.5.6 1 1.1 1.2 1.5l7.1 8.1c2.3 2.7 3.4 4 3.8 4.6l.2.2h.3c.6 0 1-.4 1.1-.7V43c0-.3-.1-1.5-.1-5.3V30c0-1.3 0-4.7.4-5.6.1-.1.4-.3 1.3-.4l.6-.1.1-.1c.2-.5.3-.8.3-1.1zm35.1 18.5c-.1 0-.3 0-.4.1-.2 0-.4.1-.7.1-.8 0-2.9-1.8-4-2.8-.3-.3-.5-.5-.8-.7.9-1.8 1.1-3.8 1.3-5.4.1-.5.3-.6.6-.7.2-.1.7-.3.7-.8 0-.6-.3-.9-.9-.9-.7 0-1.2.1-1.5.1h-1.3c-.5 0-1.2-.1-1.9-.1h-.1-.1c-.9 0-1 .6-1 .8 0 .7.7.9 1.2 1 .8.2 1.7.4 1.7 2.3 0 1-.1 1.8-.4 2.5-7-6.5-10.5-10.6-10.5-12.2 0-1.1.8-2 2-2 1.6 0 3 1.5 3.7 2.9v.1c.1.2.3.7.9.7.4 0 .8-.3.8-.8l-.1-2.9v-.1c0-.3 0-.7-.3-1-.2-.2-.4-.2-.6-.2-.3 0-.5.1-.6.2-.5-.2-1.6-.8-3.2-.8-2.6 0-5.5 1.5-5.5 4.7 0 1 .4 2.1 1.1 3.2-2.9.9-4.5 3.4-4.5 6.8 0 4.7 3.8 8.2 8.9 8.2 2.9 0 5.2-.9 7.5-2.9.1.1.2.2.3.2l.1.1c1.5 1.3 3.1 2.6 5.2 2.6 1 0 3-.4 3-1.5.1-.4-.2-.8-.6-.8zm-14.4-.6c-3.8 0-7.3-3.3-7.3-7 0-1.4 1.1-3.6 2.8-3.6.3 0 1.3 1.1 2.1 2.1 1.5 1.6 3.7 4.1 7 7-1.3 1-3 1.5-4.6 1.5zm67.8.9l-.1-.1-1-.1c-1-.1-1.3-.3-2.2-2.9l-4.3-12.8-1.2-3.6c-.1-.4-.5-.6-1-.6h-.2l-.2.2c-.3.3-.7.8-1.3 1l-.4.1.1.5c.1.4-.1.9-.5 1.9l-3.1 8.2c-.9 2.3-1.5 4-2 5.2l-.1.3c-.2.5-.4.9-.5 1.3-.4 1-.9 1.1-1.4 1.2l-1.2.1-.1.1c-.2.2-.3.5-.3.8 0 .3.1.6.4.8l.1.1h.6c.8 0 1.7-.1 2.5-.1h1c.9 0 1.6 0 2.2.1h.1l.1-.1c.3-.1.5-.4.5-.8s-.1-.7-.4-.9l-.1-.1-1.1-.1c-.3 0-.4-.1-.4-.1 0-.1.1-.6.6-2.4l1.1-3.2c.1-.4.1-.4.7-.4h4.6c.6 0 .6 0 .8.4l1.3 4.1c.1.3.3 1 .4 1.4-.1 0-.3.1-.6.1l-1 .1-.1.1c-.2.2-.4.5-.3.9 0 .4.2.6.5.8l.1.1h.5c.8 0 1.8-.1 3.1-.1s2.4 0 3.7.1h.2l.2-.1c.3-.2.3-.6.3-.8-.3-.3-.4-.5-.6-.7zm-9-8.3H314.776c0-.1.1-.2.1-.3l1.9-5.3c.2-.5.3-.9.5-1.2.1.3.2.7.4 1.1l1.7 5.2c.1.2.1.4.1.5h-.6zm26.5 4.6l-.1.1v.1c-.6 1.5-1.3 2.5-1.8 2.8-.4.2-1 .3-3.5.3-2.4 0-2.8-.4-3-.5-.4-.5-.5-1.2-.5-2.9V27.1c0-3.2.1-3.2 1.4-3.3l.8-.1.2-.1c.2-.2.4-.5.3-.8 0-.2-.1-.6-.5-.8l-.1-.1h-.1c-1.4.1-2.5.1-3.7.1-1.2 0-2.2 0-4-.1h-.1l-.1.1c-.4.2-.4.6-.5.8 0 .4.1.7.3.8h.1l.9.1c1.5.1 1.5.1 1.5 3.3v11c0 3.2 0 3.2-1.4 3.3l-1.1.1-.1.1c-.2.3-.3.6-.2.9.1.3.2.6.4.7l.1.1h.1c1.8-.1 2.7-.1 3.9-.1h2.8c3.3 0 6.1 0 7.6.1h.3l.2-.3c.4-.8 1.3-4 1.3-4.5.2-.7-.9-.9-1.4-.6zm21.1.4c-.2-.4-.5-.6-1-.6-.2 0-.4.1-.6.2h-.1v.2c-.9 1.8-1.6 2.6-1.9 2.7-.6.3-1.5.4-3.7.4-2.4 0-3.1-.3-3.3-.5-.4-.4-.4-1.4-.4-2.8v-4.3-.3h2.3c1 0 1.8 0 2.2.1.3.1.4.2.6.8l.3 1.3.1.1c.2.3.6.3.8.3.4 0 .7-.2.9-.4l.1-.1v-.1c0-.3 0-.7-.1-1.1V34c0-.5-.1-1.1-.1-1.7 0-.7 0-1.3.1-1.9V29l-.1-.2c-.2-.3-.5-.4-.9-.4-.2 0-.5 0-.8.3l-.1.1-.3 1.4c-.1.6-.2.6-.4.7-.2.1-1 .2-2.4.2h-2.3V24.7 24h2.6c1.3 0 2.2 0 2.8.2 1.2.3 1.5 1.1 1.9 2.4l.1.3.1.1c.2.2.4.3.7.3.3 0 .7-.1.9-.4l.1-.2-.1-.7c-.2-1.8-.3-3.2-.5-3.7l-.2-.4-.5.1c-.3.1-2.4.1-4 .1h-5.7c-1.2 0-2.2 0-3.6-.1h-.1l-.1.1c-.4.2-.5.7-.5.8 0 .4.1.7.3.8h.1l.7.1c1.3.2 1.4.2 1.4 3.3v11c0 3.2-.1 3.2-1.4 3.3l-1.2.1-.1.1c-.2.3-.3.6-.2.9.1.3.2.5.4.7l.1.1h.1c1.9-.1 2.9-.1 4.1-.1h2.7c2.8 0 5.4 0 8.2.1h.3l.1-.3c.4-.9 1.2-3.3 1.4-4.4v-.2l.2-.2zm11.8-7l-2.4-1.5c-1.6-1-2.4-2.1-2.4-3.3 0-1.3.5-2.9 3.1-2.9 2.5 0 3.2 1.5 3.7 3.1v.1l.1.1c.2.2.4.3.7.3.3 0 .7-.1.9-.4l.1-.1v-.2c0-1.3-.3-3.1-.6-3.9l-.1-.3h-.4c-.2 0-.7-.1-.9-.2-.8-.3-2-.4-3-.4-4 0-6.7 2.4-6.7 5.8 0 2.8 1.9 4.6 3.5 5.7l2.9 1.9c2 1.3 2.3 2.6 2.3 3.8 0 1.4-.9 3-3.3 3-2.9 0-4.2-2.3-4.8-4.2l-.1-.1c-.1-.2-.4-.3-.7-.3-.3 0-.7.1-.9.4l-.1.1v.2c.1 1.5.5 3.7.9 4.5l.1.1.1.1c.6.4 2.4 1.2 5 1.2 4.2 0 7-2.5 7-6.2.1-2.7-1.2-4.8-4-6.4zm-68-12.6h-.5c-.7 0-1.5.1-2.5.1-.9 0-1.8 0-3.1-.1h-.4c-.2.1-.3.4-.4.6-.1.3 0 .6.3.9l.1.1 1.2.1c.3 0 .9.1.9.5 0 .3 0 .7-.2 1.1l-4.4 14.3-4.7-14c-.1-.2-.1-.4-.2-.6-.1-.4-.3-.8-.3-.9 0-.1 0-.2.8-.3l.9-.1.1-.1c.2-.3.3-.6.2-.9-.1-.2-.2-.4-.4-.5h-.2c-1.3.1-2.7.1-3.6.1-1.1 0-3.1 0-4-.1h-.2c-.2.1-.4.3-.4.6s0 .6.2.8l.1.1 1 .1c.7.1 1.2.4 1.5 1 0 .1 1.2 3.5 1.5 4.2l-3.7 10.7-4.6-13.9c-.1-.3-.2-.5-.2-.7-.2-.5-.3-.9-.3-1.1 0-.2.1-.2 1-.3l.8-.1.1-.1c.2-.3.3-.6.2-.9-.1-.2-.2-.4-.5-.5h-.2c-1.2.1-2.3.1-3.2.1-1.1 0-3.4 0-4.3-.1h-.2c-.2.1-.4.3-.4.6s0 .6.2.8l.1.1.9.1c1 .1 1.3.5 1.6 1.3.1.3 7.4 21 7.5 21.3.1.2.3.4.7.4.4 0 .6-.3.7-.4l5-14.1 5 14.1c.1.2.3.4.7.4.4 0 .6-.2.7-.4l7-21c.5-1.4 1-1.5 1.9-1.6l.8-.1.1-.1c.2-.2.3-.6.2-.9-.1-.2-.2-.5-.4-.6h-.5zm-107.5 3.1c-6.5 0-11.4 4.9-11.4 11.3 0 5.4 3.9 10.9 11.4 10.9 6.3 0 11.1-4.8 11.1-11.2 0-5.3-3.5-11-11.1-11zm.4 20.1c-6.1 0-7.7-6.2-7.7-9.9 0-6.1 3.6-8.3 6.8-8.3 5.6 0 7.5 5.4 7.5 9.9 0 6.2-3.6 8.3-6.6 8.3zm-73.9 22.8c0 1-.1 1.7-.2 2-.1.4-.4.7-.7 1-.6.5-1.5.8-2.5.8-.7 0-1.3-.1-1.9-.4-.5-.3-.9-.6-1.1-1-.2-.4-.4-1.2-.4-2.4V57h-2.4v7.6c0 1.1.1 1.8.2 2.4.1.5.3.9.6 1.3.2.4.5.7.8 1 1.1.9 2.5 1.4 4.2 1.4 1.7 0 3.1-.5 4.2-1.4.3-.3.6-.6.8-1 .2-.4.4-.8.6-1.3.2-.5.2-1.3.2-2.3v-7.6h-2.4v7.5zm28.1 1.9l-8.2-9.5h-1.9v13.4h2.3V61l8.2 9.4h2V57.1h-2.3v9.4zm18 4h2.4V57.1h-2.4v13.4zm22.8-4.9l-3.7-8.6h-2.5l5.8 13.5h.8l5.7-13.5h-2.5l-3.6 8.6zm22.7-.8h5.3v-2.2h-5.3v-3.3h5.4v-2.2h-7.9v13.4h8v-2.2h-5.6v-3.5zm29.3 2.7c-.7-1.2-1.3-2-1.7-2.5l-.9-.9c.5-.3 1-.7 1.3-1.1.4-.6.6-1.3.6-2.1 0-1.2-.4-2.1-1.2-2.8-.8-.7-1.9-1-3.3-1h-3.5v13.4h2.4v-5.6h.2c.7 0 1 .1 1.1.2.2.1.5.3.8.6.3.3.6.7 1 1.2l1.2 2 .4.5c0 .1.1.1.1.1l.6 1h2.9l-1-1.4c-.2-.4-.6-.9-1-1.6zm-6.3-8.3h.3c.9 0 1.5.1 1.8.2.3.1.6.3.8.6.2.3.3.6.3.9 0 .4-.1.7-.2.9-.2.3-.4.5-.7.6-.2.1-.7.2-1.8.2h-.4v-3.4zm27.1 3.8l-1.4-.8c-.6-.4-1-.7-1.3-1-.2-.3-.4-.6-.4-.9 0-.3.1-.6.5-.8.3-.2.8-.4 1.3-.4 1 0 1.9.4 2.8 1.3l.5.5V58l-.1-.1c-.9-.6-2-1-3.1-1-1.2 0-2.2.3-2.9 1-.8.7-1.1 1.6-1.1 2.7 0 .7.2 1.4.6 2 .4.6 1 1.1 2 1.7l1.4.8c1 .6 1.6 1.3 1.6 2 0 .4-.2.7-.5 1-.3.3-.7.4-1.2.4-1.2 0-2.3-.6-3.2-1.8l-.5-.7v3.3l.1.1c1.1.8 2.3 1.2 3.6 1.2 1.2 0 2.1-.4 2.9-1 .7-.7 1.1-1.6 1.1-2.7-.2-1.6-1-2.9-2.7-3.9zm17.5 7.5h2.4V57.1h-2.4v13.4zm17.1-11.2h4.4v11.2h2.4V59.3h4.5V57h-11.3v2.3zm33.8-2.2l-3.3 4.2-3.3-4.2h-3l5.1 6.4v7h2.5v-7l5.1-6.4h-3.1zm-274.8-38.6l-.2-1-1-.1c-.1 0-7.7-1-16.4-4.8-.7-.3-1.3-.6-2-.9.2-.1.4-.1.4-.1.9-.3 2-.6 3.2-.6 1 0 2 .2 3.2.7.1 0 .2.1.3.1h.2l.2-.1c.1-.1.5-.4.3-1-.2-.7-.7-1.2-1.2-1.5.2-.2.2-.6-.1-1-1-1.2-2.8-1.5-4.2-1.5-.8 0-1.4.1-1.8.1 1.4-2.2 1.5-2.9.9-3.6l-.1-.1-.1-.2c-.6-.9-3.6-2.9-13-2.9h-1c-9.5 0-12.5 2-13.4 2.9l-.2.2s0 .1-.1.1c-.5.7-.4 1.3.9 3.6-.4-.1-1.1-.1-1.8-.1-1.4 0-3.2.3-4.2 1.5-.3.4-.2.8-.1 1-.5.4-1 .9-1.2 1.5-.2.6.1.9.2 1l.3.2h.2c.2 0 .3 0 .3-.1 1.1-.4 2.1-.6 3.1-.6 1.2 0 2.3.3 3.2.6 0 0 .2 0 .4.1-.7.3-1.4.6-2 .9-9 3.7-16.2 4.8-16.3 4.8l-1 .1-.1 1c-.1.7-2 17.2 3.8 29.6 5.3 11.5 12.5 18.3 17.7 21.9 5.7 4.1 10 5.3 10.2 5.4l.4.1.4-.1c.5-.2 5.2-1.8 10.9-5.9 5.4-3.9 12.8-10.7 17-21.4 6.2-15.7 3.9-29.7 3.8-29.8zm-27.7-13.9c.8-.9 1.6-1.7 2.5-2.6.1-.1.1-.1.2-.1.1.1.2.1.2.1.1 0 .2.1 0 .2-.8.7-1.6 1.5-2.3 2.3-.1.1-.1.1.1.1.3 0 .5.1.8.1.1 0 .2 0 .2-.2 0-.3.1-.6.1-.9 0-.1.1-.2.2-.2.2 0 .6-.1.7-.1.1 0 .1.1.1.1-.1.4-.1.8-.2 1.2 0 .2 0 .2.1.2s.3 0 .4.1c.1.1 0 .3-.1.3s-.3 0-.4-.1c-.1 0-.2 0-.2.2v.2c-.1.5 0 .6.2.6h.1v.2c-.2 0-.5-.1-.8-.1-.4-.1-.8-.1-1-.1-.1 0 0-.2 0-.2h.3c.3 0 .4 0 .4-.5v-.2c0-.2 0-.2-.1-.2-.5-.1-1-.1-1.5-.2 0 0-.1-.1 0-.2zm3.7 3.8c-.2.2-.4.7-.6 1-1.2-.6-2.3-1.1-3.2-1.6 1.5.1 2.8.3 3.8.6zm-7.1-2.8h.3c.3 0 .3-.1.4-.6 0-.7 0-1.3.1-2 0-.4 0-.5-.3-.5h-.3c-.1 0-.1-.2 0-.2.3 0 .6-.1.9-.1l.6-.2s.1 0 .1.1 0 .4-.1.7c0 .8-.1 1.6-.1 2.4 0 .5 0 .6.3.6h.3c.1 0 0 .2 0 .2-.2 0-.6-.1-1-.1h-1c-.3-.1-.3-.3-.2-.3zm-3.2-3.8c1.1-.1 1.6.7 1.7 1.5 0 .7-.3 1.4-.8 1.9s-1.3.9-1.8 1c-.1 0-.1-.2 0-.2 1.2-.4 1.8-1.4 1.7-2.6 0-.5-.2-1.4-.8-1.3-.3 0-.5.4-.5.8 0 .5.3 1 .7 1.1h.2v.1c-.1.1-.4.2-.6.2-.6 0-1.1-.4-1.2-1-.1-.9.5-1.5 1.4-1.5zm-5.2 1c.3-.1.6-.2.8-.3.3-.1.5-.3.6-.3 0 0 .1 0 .1.1s0 .4.1.7l.3 2.4c.1.5.1.5.4.5h.3c.1 0 .1.2 0 .2-.2 0-.6.1-1 .1-.4.1-.8.1-1 .2-.1 0-.1-.2-.1-.2.1 0 .2 0 .3-.1.3-.1.3-.1.2-.6-.1-.7-.2-1.3-.3-2 0-.4 0-.5-.3-.5h-.3c-.1 0-.1-.1-.1-.2zm3.4 5c-.9.5-2 1-3.2 1.6-.2-.3-.4-.7-.6-1 1-.3 2.2-.5 3.8-.6zm-13.4 52.3c-2.7-3.2-5.2-6.8-7.2-10.7l13.2 7.4-6 3.3zm17.5 12.7c-1.1-.4-4.4-1.7-8.5-4.6l8.7-4.8 8.5 4.7c-4.2 2.9-7.6 4.3-8.7 4.7zm.1-22.6l-12.2-6.9h24.4l-12.2 6.9zm17.7 10l-6.2-3.4 13.3-7.5c-1.8 4-4.2 7.6-7.1 10.9zm11-23.2c-.2 1.2-.5 2.5-.8 3.7h-15.6s-.8.1-1.3 0h-10.9-28.2c-2.2-8.8-1.7-18-1.4-20.9 1.9-.3 8.1-1.6 15.9-4.8 5.4-2.2 11.4-5.3 13.6-6.4 1.3.7 4.4 2.3 9.1 4.5 1.3.6 2.7 1.2 4.3 1.9 1.8.8 3.5 1.4 5.2 2 .4.1.8.3 1.2.4 3.6 1.2 6.6 1.8 8.6 2.2.4.1.8.1 1.1.2.2 1.9.8 8.7-.8 17.2zm-46.5-15.6c-.4.1-.8 0-1.4-.1-1-.1-2 1.2-2 1.2s.4-.4 2-.1c.6.1.9 0 1.2-.2-.5.8-1.6.6-1.6.6 1 .3 1.5.1 1.8-.1 1.2-.6 1-.9 2.4-1.4 0 0-.5 0-1.3-.3-1.2-.5-2.2.2-2.2.2s.8-.2 1.1.2zm30 18.7c.7-1 1.8-1 2.4-1 .3 0 .5 0 .7-.2 1.8-1.9 2.7-5 2.2-4.9-1.6.3-1.6.1-3.4.1-2.5-.1-1.7-4.6-1.7-4.6 2.1-.3 2.2 1.2 5.2 1.9 2.6.6 4.9-.4 3.3-2.6-.1-.2-1.2-1.5-1.9-2-2.2-1.6 3.7-2.2 4-2.3.5-.3-1.1-.2-1.1-.5.5 0 2.4-.1 2.4-.5 0-.1-1.2-.2-1.4-.4.9-.1 2.2.2 2.7-.8-1.4-.4-3.6-1.1-6.8 1.7-3 2.6.7 3.5 1.5 5.8.3 1-1.7.7-4.1-.7-1.5-.9-3.1-1.2-3.9-1 0-1.3-2.5-1.7-2.4-1.7.9-.3 1.6-.6 2.2-1-1.9 0-3.7-.3-3.8-.6 5.2.5 6.9-2 7.1-2.3-1.8.4-4.8.5-4.9.2 1.3-.1 6.8-1.3 6.2-3.8-1.5 1.3-3.9 1.8-4.1 1.6 3-1.2 3.5-2.6 3.4-3.9-1.7 2-3.4 2.7-4.5 3-2.1.6-4.1.8-6.4 1.1-2.2.3-5.6.6-7.1 1-3.2.9-3.9 2.2-3.9 2.2s.4-1.3 2.2-2.2c1.5-.8 3.3-1 5.4-1.3 2.3-.4 7.5-1 9.7-1.8 1.4-.9.8-3 .8-3-.3 1.2-1.8 2.2-2.1 2.1.8-.9 1.2-1.8 1.1-2.8-3.2 2.8-6.8 4-10.9 4.8-2.5.5-5.3.9-6.9 3.1l-.3.3c-.3.3-.5.4-.5.2 0 0 .5-1.5.4-3a4 4 0 0 0-.3-.9s-.2-.4-.3-1.1c0-.2-.1-.5-.1-.7-.1-.9-1.1-2.2-1.2-2.3-.1-.2-.6.1-.6.2.2.5 0 1.6 0 1.6-.5-.8-1.1-1.1-1.1-1.1s-.5-.3-.4.2c.2.8-.1 1.7-.3 1.6-1.1-.1-2.3-.1-3 .1-.7.2-1 .3-1.4.8-.1.2-.2.1-1 .3-1.7.3-1.5 1.6-1.5 1.7 0 0 0 .1.1.1.2-.1.4-.4.7-.4 1-.2.7.7 1.9.4.5-.1 1.2-.4 1.6 0 .3.3.3 1-.4 1.3-.3.1-.5 0-.9.1-.5.1-.6.4-.8.4-.4.1-.9 0-1 .1-.1.1.2.5.8.6.4 0 .8-.2 1.8-.3.3 0 .9-.1 1 0 .2.3.6.7-.3 1-.7.2-1.5.4-2.5 1-.7.5-1.3 1.3-1.5 1.8-.4 0-.8.2-1.1.7-.7.1-2.7.3-3.2.2-.1 0-.4-.2-.4-.2s-.2-.2-.2-.5c0-.7 0-1.9-.2-2-.2-.2-.7 0-.7 0-.1.1.1.2.1.3 0 .1.1.4.1.8 0 .2-.1.3-.1.3s-.2.1-.3-.1c-.4-.5-.9-1.3-1-1.3-.2 0-.5.5-.5.6 0 .1.3 0 .4.2.1 0 .4.6.7 1.1.1.2 0 .3 0 .3s-.1.1-.3 0c-.5-.2-1.1-.4-1.3-.3-.2-.4-.3.1-.2.1.1.2.4-.1.5 0 .1 0 .9.3 1.5.6.2.1.2.1.3.4.1.1 0 .3 0 .5 0 .1-.1.2-.2.6 0 .2-.4.2-.3.3 0 .2.8.3.9.2.1-.1.2-.5.4-.9 0-.1.1-.2.2-.2.1-.1.3-.1.5-.1.6.1 2.8.3 3.3.3.1.5.5.9.9.9.5 2.4 2.2 3.6 3.4 4-.3.8-.1 1.7.5 2.2-.2.7-.7 1.6-1 2.1-.1.1-2.4-.1-2.6-.1-.2.1-.7.7-.5.8.1 0 .4-.1 1.1-.1.3 0 .4 0 .5.1.1.2-1.5.4-1.5.7 0 .2 1 .7 1.1.7.2-.1-.2-.2.5-.5.4-.1.4-.2.7-.2.2 0-.1.2-.3.4-.2.1-.1.2 0 .3.1.1.7.4.9.4.2 0 0-.3.2-.4.5-.4 1-.9 1-.9.2-.2.6-.4 1.4-.4.1 0 .7 0 1 .1.2 0 .1.2.3.2.2-.1.5-.9.2-.9-.2 0-.7.1-1.7-.1-.2-.1 0-.4 0-.5.2-.4.3-.8.5-1.2.5-.1 1-.5 1.4-1 .2-.3.4-.7.5-1.1 4 .2 6.6-1.1 7.8-1.6 1.2-.5 2.7-.8 4.9-.5 0 0-3.9 2.6-.5 4 .6.2.7.3.7.5 0 .5-1.3 1.5-1.6 1.6-1.6.3-3.7.1-3.9.2-.9-.1-1 .6-1 .6s1-.2 1.3-.1c.2.1-.8.3-1.1.6-.3.2 1 1.1 1 .9 0-.1-.1-.2.1-.4.3-.3.8-.4.8-.2-.1.5 0 .7.1.8 0 0 .2.1.5.1h1.3c.3-.1-.1-.3-.1-.5.1-.2.1-.4.7-.8 1-.7 2.3-.3 2.5-.5.1-.1.5-1.1 1.3-1.8.6-.6 1.6-.7 1.3-1-1.7-1.8-.2-3.6 1.6-3.7-.6.1-3.1 3.5 1 4 1.2.2 1.9 0 3.7-.6.9-.3 1.8-.2 2.1.1.4.4-.7 1.4-1.1 1.8-.3.2-.4.3-1.2.4-1.2.2-2.5 0-3.2 0-.4 0-.6.9-.4.8.1 0 .8-.2 1-.2.2 0 .2.1.1.2-.2.1-.9.4-1 .5-.2.3 1.1 1.1 1 .9 0-.1.1-.3.3-.5.3-.2.7-.3.7 0 0 .2 0 .5.1.6.1.1.3.1.5.1h1.3c-.1.1-.3-.2-.1-.4zM21.276 19c-.1 0-.5-.3-.7-.1 0 0-.1.4-.3.5-.2.1-.5.2-.8-.1-.2-.2-.2-.4-.4-.4 0 0-.4.1-.8-.1-.2-.1-.2 0-.2-.1 0 0 .1-.3.3-.3.3 0 .2.1.5.2.3 0 .6-.1.7-.1.2 0 .8-.3 1.3-.1.2.1.3.2.4.2.1.1.1.4 0 .4zm10.4 10.3c-1-.5-1.6-1.8-1.2-1.3 1.1 1.2 3.2 1 3.2 1 .4.1-.7 1-2 .3zm3.9-.4c-1.2-.4-2.1-1.7-1.5-1.3 1.4 1.1 3.8.6 3.8.6.4 0-.6 1.2-2.3.7zm4-1.1c-1.4-.2-2.7-1.4-2-1.1 1.8.9 4.3-.2 4.3-.2.5 0-.4 1.5-2.3 1.3z"/></symbol><symbol id="logo-shield" viewBox="0 0 64.926859 75.6"><path d="M60.683 48.2c-4.2 10.7-11.6 17.6-17 21.4-5.7 4.1-10.4 5.8-10.9 5.9l-.4.1-.4-.1c-.2 0-4.5-1.3-10.2-5.4-5.2-3.7-12.4-10.5-17.7-22-5.7-12.3-3.8-28.8-3.7-29.5l.1-1 1-.1c.1 0 7.3-1.1 16.3-4.8.7-.3 1.3-.6 2-.9-.2-.1-.4-.1-.4-.1-.9-.3-2-.6-3.2-.6-1 0-2 .2-3.1.6-.1 0-.2.1-.3.1h-.2l-.3-.2c-.1-.1-.4-.4-.2-1 .2-.7.7-1.2 1.2-1.5-.2-.2-.2-.6.1-1 1-1.2 2.8-1.5 4.2-1.5.7 0 1.4.1 1.8.1-1.4-2.2-1.5-2.9-.9-3.6 0 0 0-.1.1-.1v-.1c.9-.8 3.9-2.9 13.3-2.9h1c9.4 0 12.4 2 13.3 2.9l.1.2.1.1c.5.7.4 1.3-.9 3.6.4-.1 1.1-.1 1.8-.1 1.4 0 3.2.3 4.2 1.5.3.4.2.8.1 1 .5.4 1 .9 1.2 1.5s-.2.9-.3 1l-.2.1h-.2c-.1 0-.3 0-.3-.1-1.1-.4-2.1-.7-3.2-.7-1.2 0-2.3.3-3.2.6 0 0-.2.1-.4.1.6.3 1.3.6 2 .9 8.7 3.8 16.3 4.8 16.4 4.8l1 .1.2 1c-.1.1 2.2 14.1-3.9 29.7zm-24-43.3c.5 0 1 .1 1.5.2.1 0 .1 0 .1.2v.2c-.1.5-.1.5-.4.5h-.3c-.1 0-.1.2 0 .2.2 0 .6.1 1 .1.3 0 .6.1.8.1.1 0 .1-.2 0-.2h-.1c-.3-.1-.3-.1-.2-.6v-.2c0-.2 0-.2.2-.2.1 0 .3 0 .4.1.1 0 .1-.3.1-.3-.1 0-.3 0-.4-.1-.1 0-.1 0-.1-.2.1-.4.1-.8.2-1.2 0-.1 0-.1-.1-.1s-.5.1-.7.1c-.1 0-.2.1-.2.2 0 .3-.1.6-.1.9 0 .2 0 .2-.2.2-.3 0-.5-.1-.8-.1-.2 0-.2-.1-.1-.1.7-.8 1.5-1.5 2.3-2.3.1-.1.1-.2 0-.2h-.2c-.1 0-.2 0-.2.1-.9.8-1.7 1.7-2.5 2.6-.1-.1-.1 0 0 .1zm-.2 2.9c.9.5 2 1 3.2 1.6.2-.3.4-.8.6-1-.9-.2-2.2-.5-3.8-.6zm-3.3-2h1c.4 0 .8 0 1 .1.1 0 .1-.2 0-.2h-.3c-.3 0-.3-.1-.3-.6 0-.8.1-1.6.1-2.4 0-.3 0-.6.1-.7l-.1-.1-.6.2c-.3.1-.6.1-.9.1-.1 0-.1.2 0 .2h.3c.3 0 .3.1.3.5 0 .7 0 1.3-.1 2 0 .5-.1.6-.4.6h-.3c.2.2.2.3.2.3zm-4.5-2.6c.1.6.6 1 1.2 1 .3 0 .5-.1.6-.2v-.1h-.2c-.4 0-.7-.6-.7-1.1 0-.4.1-.7.5-.8.6 0 .8.9.8 1.3 0 1.1-.6 2.2-1.7 2.6-.1 0 0 .2 0 .2.5-.1 1.3-.5 1.8-1s.9-1.2.8-1.9c0-.9-.6-1.6-1.7-1.5-.9.1-1.5.8-1.4 1.5zm-3.7-.1h.3c.3 0 .3.1.4.5.1.7.2 1.3.3 2 .1.5.1.6-.2.6-.1 0-.2 0-.3.1 0 0 0 .2.1.2.2-.1.6-.1 1-.2s.8-.1 1-.1c.1 0 0-.2 0-.2h-.3c-.3 0-.4 0-.4-.5l-.3-2.4c0-.3-.1-.6-.1-.7l-.1-.1s-.3.2-.6.3l-.9.3s0 .2.1.2zm-.5 5.3c.2.2.4.7.6 1 1.2-.6 2.3-1.1 3.2-1.6-1.6.2-2.9.4-3.8.6zm-3.7 48.4l-13.2-7.4c2 3.9 4.4 7.5 7.2 10.7l6-3.3zm20.2 11.5l-8.5-4.8-8.7 4.8c4.1 2.9 7.4 4.2 8.5 4.6 1.1-.4 4.6-1.9 8.7-4.6zm3.7-24.9h-24.4l12.2 6.9 12.2-6.9zm12.6 6l-13.3 7.5 6.2 3.4c2.9-3.3 5.3-7 7.1-10.9zm4.7-29.5c-.3-.1-.7-.1-1.1-.2-1.9-.4-5-1.1-8.6-2.2-.4-.1-.8-.3-1.2-.4-1.7-.6-3.4-1.2-5.2-2-1.6-.7-3-1.3-4.3-1.9-4.7-2.2-7.8-3.8-9.2-4.5-2.2 1.1-8.2 4.2-13.6 6.4-7.8 3.2-14 4.5-15.9 4.8-.2 2.9-.8 12.1 1.4 20.9h27c.3 0 .8.1 1.1 0h11.1c.5.1 1.3 0 1.3 0h15.5c.3-1.3.6-2.5.8-3.7 1.7-8.6 1.1-15.3.9-17.2zm-47.4 1.5c-.4.1-.8 0-1.4-.1-1-.1-2 1.2-2 1.2s.4-.4 2-.1c.6.1.9 0 1.2-.2-.5.8-1.6.6-1.6.6 1 .3 1.5.1 1.8-.1 1.2-.6 1-.9 2.4-1.4l-1.3-.3c-1.2-.5-2.2.2-2.2.2s.9-.2 1.1.2zm30.2 19.3h-1.3c-.2 0-.4-.1-.5-.1-.1-.1-.1-.4-.1-.6.1-.3-.4-.2-.7 0-.2.2-.3.4-.3.5.1.2-1.3-.6-1-.9.1-.2.8-.4 1-.5.1 0 .1-.1-.1-.2-.2 0-.9.2-1 .2-.2.1.1-.8.4-.8.7 0 2 .1 3.2 0 .8-.1 1-.2 1.2-.4.4-.4 1.5-1.3 1.1-1.8-.4-.4-1.2-.5-2.1-.1-1.8.6-2.5.8-3.7.6-4.1-.5-1.6-3.9-1-4-1.8.1-3.3 1.9-1.6 3.7.2.3-.7.4-1.3 1-.8.7-1.2 1.7-1.3 1.8-.2.2-1.5-.2-2.5.5-.6.3-.7.5-.7.7-.1.2.4.4.1.5h-1.3c-.2 0-.4-.1-.5-.1-.1-.1-.2-.2-.1-.8 0-.2-.5-.1-.8.2-.2.2-.1.3-.1.4 0 .2-1.3-.7-1-.9s1.3-.5 1.1-.6c-.3-.1-1.3.1-1.3.1s.1-.7.5-.8c.3-.1 2.3.2 3.9-.2.3-.1 1.5-1.1 1.6-1.6 0-.2-.1-.2-.7-.5-3.4-1.4.5-4 .5-4-2.2-.3-3.7 0-4.9.5s-3.8 1.8-7.8 1.6c-.1.4-.2.7-.5 1.1-.4.5-.9.8-1.4 1-.2.4-.3.9-.5 1.2-.1.1-.2.5 0 .5 1 .2 1.6.1 1.7.1.3 0 0 .9-.2.9-.1.1-.1-.1-.3-.2-.3-.1-.9-.1-1-.1-.8 0-1.1.2-1.4.4 0 0-.5.5-1 .9-.2.1 0 .5-.2.4-.2 0-.8-.3-.9-.4s-.2-.2 0-.3c.2-.2.5-.5.3-.4-.3 0-.4.1-.7.2-.7.3-.3.4-.5.5-.1 0-1.1-.4-1.1-.7s1.6-.5 1.5-.7c-.1-.1-.2-.1-.5-.1-.7 0-1.1.1-1.1.1-.2-.1.3-.7.5-.8s2.6.2 2.7.1c.3-.5.9-1.4 1-2.1-.6-.5-.8-1.4-.5-2.2-1.2-.4-2.9-1.6-3.4-4-.3 0-.8-.4-.9-.9-.4 0-2.7-.2-3.3-.3-.2 0-.4 0-.5.1s-.2.1-.2.2c-.2.3-.3.8-.4.9s-.8 0-.9-.2c0-.2.3-.1.3-.3.1-.4.2-.5.2-.6 0-.2.1-.4 0-.5-.1-.2-.2-.3-.3-.4-.6-.3-1.5-.6-1.5-.6-.1-.1-.4.2-.5 0 0-.1.1-.6.3-.7s.8.1 1.3.3c.1.1.3 0 .3 0s.1-.1 0-.3c-.2-.5-.6-1-.7-1.1s-.4 0-.4-.2c0-.1.3-.6.5-.6.1 0 .6.8 1 1.3.1.2.3.1.3.1s.1-.1.1-.3c0-.4-.1-.8-.1-.8-.1-.1-.2-.2-.1-.3s.6-.2.7 0c.1.1.1 1.3.2 2 0 .2.2.5.2.5l.4.2c.4.1 2.5-.1 3.2-.2.3-.5.7-.7 1.1-.7.2-.5.8-1.3 1.5-1.8 1-.6 1.7-.8 2.5-1 .9-.2.5-.7.3-1-.1-.1-.7 0-1 0-.9.1-1.3.3-1.8.3-.6-.1-.9-.5-.8-.6s.6 0 1-.1c.3-.1.3-.3.8-.4.4-.1.6 0 .9-.1.7-.3.7-1 .4-1.3-.4-.5-1.1-.2-1.6 0-1.3.3-.9-.6-1.9-.4-.2.1-.4.3-.7.4-.1.1-.1-.1-.1-.1s-.2-1.4 1.5-1.7c.8-.2.9-.1 1-.3.4-.5.7-.6 1.4-.8.8-.2 1.9-.1 3-.1.2 0 .5-.8.3-1.6-.1-.5.4-.2.4-.2l1.1 1.1s.2-1.1 0-1.6c0-.1.4-.4.6-.2.1.1 1.1 1.3 1.2 2.3 0 .3.1.5.1.7.1.6.3 1 .3 1.1.1.1.2.4.3.9.1 1.5-.4 3-.4 3 0 .2.2.2.5-.2l.3-.3c1.6-2.2 4.4-2.7 6.9-3.1 4.1-.8 7.7-2 10.9-4.8.1 1-.3 1.9-1.1 2.8.3.1 1.7-1 2.1-2.1 0 0 .5 2.1-.8 3-2.2.9-7.3 1.5-9.7 1.8-2 .3-3.8.6-5.4 1.3-1.7.9-2.2 2.2-2.2 2.2s.7-1.3 3.9-2.2c1.6-.4 4.9-.7 7.1-1 2.3-.3 4.2-.5 6.4-1.1 1.1-.3 2.8-1 4.5-3 .2 1.3-.3 2.8-3.4 3.9.2.2 2.6-.2 4.1-1.6.6 2.5-4.9 3.7-6.2 3.8.1.4 3.1.2 4.9-.2-.2.3-1.9 2.8-7.1 2.3.1.3 1.9.5 3.8.6-.7.4-1.3.7-2.2 1-.2 0 2.3.5 2.4 1.7.8-.1 2.4.1 3.9 1 2.4 1.4 4.4 1.7 4.1.7-.7-2.3-4.5-3.2-1.5-5.8 3.2-2.8 5.4-2.1 6.8-1.7-.5.9-1.7.7-2.7.8.1.3 1.3.3 1.4.4 0 .4-1.9.5-2.4.5 0 .2 1.6.1 1.1.5-.4.1-6.2.7-4 2.3.7.5 1.8 1.8 1.9 2 1.6 2.2-.7 3.2-3.3 2.6-3-.7-3-2.2-5.2-1.9 0 0-.8 4.5 1.7 4.6 1.8.1 1.9.2 3.4-.1.5-.1-.4 3-2.2 4.9-.2.2-.5.2-.7.2-.6 0-1.7 0-2.4 1 .1 1 .3 1.3.4 1.3zm-23.7-22c-.1-.1-.3-.2-.4-.2-.4-.1-1.1.1-1.3.1-.1 0-.5.1-.7.1-.3 0-.2-.1-.5-.2-.1 0-.3.3-.3.3.1 0 0 0 .2.1.4.2.8.1.8.1.2 0 .2.2.4.4s.6.1.8.1c.2-.1.3-.5.3-.5.2-.2.6.1.7.1 0-.1.1-.3 0-.4zm12.4 10.4s-2.2.2-3.2-1c-.5-.5.2.8 1.2 1.3 1.3.6 2.4-.3 2-.3zm4.2-.9s-2.4.5-3.8-.6c-.6-.5.3.9 1.6 1.3 1.5.5 2.6-.7 2.2-.7zm4-1.6s-2.6 1.1-4.3.2c-.7-.4.6.9 2 1.1 1.9.2 2.8-1.4 2.3-1.3z"/></symbol><symbol id="logo-small" viewBox="0 0 197.23289 75.5"><path d="M81.683 28.4c0-6.6-.6-7.4-4.1-7.7l-1.5-.1c-.4-.2-.2-1.3.1-1.5 3.5.1 5.5.2 8 .2 2.4 0 4.4-.1 6.8-.2.4.2.5 1.3.1 1.5l-.9.1c-3.5.5-3.7 1.3-3.7 7.7v22.2c0 4.7-.2 8.9-1.4 11.6-2 4.8-6.2 8.6-11.8 8.6-.7 0-2.6-.1-2.6-1.3 0-1 .9-2.8 2.2-2.8.7 0 1.4.1 2.2.4.8.2 1.7.4 2.5.4 1.3 0 2-.7 2.4-1.6 1.4-2.8 1.6-11.8 1.6-15V28.4zm107.7 12.8c0 9.1-3.3 15.9-12 15.9-9.2 0-12.2-6.3-12.2-16V28.2c0-6.2.1-7.2 3.6-7.5l1.4-.1c.4-.2.2-1.3-.1-1.4-2.9.1-4.9.2-7.4.2-2.4 0-4.4-.1-7.4-.2-.4.2-.5 1.2-.1 1.4l1.5.1c3.5.3 3.6 1.3 3.6 7.5v14.1c0 7.1 1.5 11.5 4.7 14.1 2.9 2.5 7.1 3.3 11.2 3.3 4.4 0 8.9-1.6 11.4-4.4 3.4-3.6 4.2-9.1 4.2-14.3v-6.7c0-3.4-.1-10.2.8-12.2.3-.8 1.5-1.3 3-1.4l1.4-.1c.3-.4.4-1.1-.1-1.4-2.2.1-3.8.2-6.3.2-2.3 0-4.6-.1-6.8-.2-.4.2-.5 1-.1 1.4l1.5.1c1.5.1 2.6.5 3 1.3 1 1.8 1.1 8.7 1.1 12.4v6.8zm-37.7-22.2h-.3c-.3 0-.6.1-1 .1-1.2.1-2.6.1-4.3.1-1.8 0-3.3-.1-5.4-.2H140.383c-.5.2-.5.9-.1 1.4l1.7.1c1.3.1 2.3.5 2.3 1.4v.7c-.1.6-.3 1.4-.7 2.5l-8.9 25.4h-.1l-9.1-26.5c-.5-1.2-.4-2.1-.4-2.4 0-.5.7-.9 2-1l1.4-.1c.4-.4.4-1.3-.1-1.4-2.1.1-4.6.2-6.3.2-1.9 0-5.3-.1-6.9-.2-.5.2-.5 1.1-.2 1.4l1.4.1c1.8.2 2.5 1.1 3.2 2.5.1.2.1.4.2.6l2.7 7.5-7.2 19.5h-.1l-8.8-26c-.3-.8-.5-1.7-.5-2.2v-.8c0-.5.7-.9 2-1l1.4-.1c.4-.4.4-1.3-.1-1.4-2.1.1-4.3.2-6 .2-1.9 0-6.3-.1-7.9-.2-.5.2-.5 1.1-.2 1.4l1.4.1c2.1.2 2.6 1.3 3.5 3.1.1.2.1.3.2.5l12.9 35.4c.2.6.3.7.6.7.2 0 .3-.1.6-.7l9.3-25.6h.1l9.1 25.6c.2.6.3.7.6.7.2 0 .3-.1.6-.7l13-35.9c1.2-2.2 2.1-3 3.9-3.1l1.1-.1c.3-.6.2-1.4-.3-1.6m-91 29.1c-4.2 10.7-11.6 17.6-17 21.4-5.7 4.1-10.4 5.8-10.9 5.9l-.4.1-.4-.1c-.2 0-4.5-1.3-10.2-5.4-5.2-3.7-12.4-10.5-17.7-22-5.7-12.2-3.8-28.7-3.7-29.4l.1-1 1-.1c.1 0 7.3-1.1 16.3-4.8.7-.3 1.3-.6 2-.9-.2-.1-.4-.1-.4-.1-.9-.3-2-.6-3.2-.6-1 0-2 .2-3.1.6-.1 0-.2.1-.3.1h-.2l-.3-.2c-.1-.1-.4-.4-.2-1 .2-.7.7-1.2 1.2-1.5-.2-.2-.2-.6.1-1 1-1.2 2.8-1.5 4.2-1.5.7 0 1.4.1 1.8.1-1.4-2.2-1.5-2.9-.9-3.6 0 0 0-.1.1-.1v-.1c.9-.9 3.9-2.9 13.3-2.9h1c9.4 0 12.4 2 13.3 2.9l.1.2.1.1c.5.7.4 1.3-.9 3.6.4-.1 1.1-.1 1.8-.1 1.4 0 3.2.3 4.2 1.5.3.4.2.8.1 1 .5.4 1 .9 1.2 1.5s-.2.9-.3 1l-.2.1h-.2c-.1 0-.3 0-.3-.1-1.1-.4-2.2-.6-3.2-.6-1.2 0-2.3.3-3.2.6 0 0-.2.1-.4.1.6.3 1.3.6 2 .9 8.7 3.8 16.3 4.8 16.4 4.8l1 .1.2 1c-.1 0 2.2 14-3.9 29.5zm-24-43.2c.5 0 1 .1 1.5.2.1 0 .1 0 .1.2v.2c-.1.5-.1.5-.4.5h-.3c-.1 0-.1.2 0 .2.2 0 .6.1 1 .1.3 0 .6.1.8.1.1 0 .1-.2 0-.2h-.1c-.3-.1-.3-.1-.2-.6v-.2c0-.2 0-.2.2-.2.1 0 .3 0 .4.1.1 0 .1-.3.1-.3-.1 0-.3 0-.4-.1-.1 0-.1 0-.1-.2.1-.4.1-.8.2-1.2 0-.1 0-.1-.1-.1s-.5.1-.7.1c-.1 0-.2.1-.2.2 0 .3-.1.6-.1.9 0 .2 0 .2-.2.2-.3 0-.5-.1-.8-.1-.2 0-.2-.1-.1-.1.7-.8 1.5-1.5 2.3-2.3.1-.1.1-.2 0-.2h-.2c-.1 0-.2 0-.2.1-.9.8-1.7 1.7-2.5 2.6-.1-.1-.1 0 0 .1zm-.2 2.9c.9.5 2 1 3.2 1.6.2-.3.4-.8.6-1-.9-.3-2.2-.5-3.8-.6zm-3.3-2h1c.4 0 .8 0 1 .1.1 0 .1-.2 0-.2h-.3c-.3 0-.3-.1-.3-.6 0-.8.1-1.6.1-2.4 0-.3 0-.6.1-.7l-.1-.1-.6.2c-.3.1-.6.1-.9.1-.1 0-.1.2 0 .2h.3c.3 0 .3.1.3.5 0 .7 0 1.3-.1 2 0 .5-.1.6-.4.6h-.3c.2.1.2.3.2.3zm-4.5-2.6c.1.6.6 1 1.2 1 .3 0 .5-.1.6-.2v-.1h-.2c-.4 0-.7-.6-.7-1.1 0-.4.1-.7.5-.8.6 0 .8.9.8 1.3 0 1.1-.6 2.2-1.7 2.6-.1 0 0 .2 0 .2.5-.1 1.3-.5 1.8-1s.9-1.2.8-1.9c0-.9-.6-1.6-1.7-1.5-.9.1-1.5.7-1.4 1.5zm-3.7-.1h.3c.3 0 .3.1.4.5.1.7.2 1.3.3 2 .1.5.1.6-.2.6-.1 0-.2 0-.3.1 0 0 0 .2.1.2.2-.1.6-.1 1-.2s.8-.1 1-.1c.1 0 0-.2 0-.2h-.3c-.3 0-.4 0-.4-.5l-.3-2.4c0-.3-.1-.6-.1-.7l-.1-.1s-.3.2-.6.3-.6.2-.8.3c-.1 0-.1.1 0 .2zm-.5 5.3c.2.2.4.7.6 1 1.2-.6 2.3-1.1 3.2-1.6-1.6.1-2.9.4-3.8.6zm-3.7 48.4l-13.2-7.4c2 3.9 4.4 7.5 7.2 10.7l6-3.3zm20.2 11.4l-8.5-4.7-8.7 4.8c4.1 2.9 7.4 4.2 8.5 4.6 1.1-.4 4.6-1.9 8.7-4.7zm3.7-24.8h-24.4l12.2 6.9 12.2-6.9zm12.6 6l-13.3 7.5 6.2 3.4c2.9-3.3 5.3-7 7.1-10.9zm4.7-29.5c-.3-.1-.7-.1-1.1-.2-1.9-.4-5-1.1-8.6-2.2-.4-.1-.8-.3-1.2-.4-1.7-.6-3.4-1.2-5.2-2-1.6-.7-3-1.3-4.3-1.9-4.7-2.2-7.8-3.8-9.2-4.5-2.2 1.1-8.2 4.2-13.6 6.4-7.8 3.2-14 4.5-15.9 4.8-.3 2.8-.8 12 1.4 20.8h27.003c.3 0 .8.1 1.1 0h11.1c.5.1 1.3 0 1.3 0h15.5c.3-1.3.6-2.5.8-3.7 1.7-8.5 1.1-15.3.9-17.1zm-47.4 1.5c-.4.1-.8 0-1.4-.1-1-.1-2 1.2-2 1.2s.4-.4 2-.1c.6.1.9 0 1.2-.2-.5.8-1.6.6-1.6.6 1 .3 1.5.1 1.8-.1 1.2-.6 1-.9 2.4-1.4l-1.3-.3c-1.2-.5-2.2.2-2.2.2s.9-.2 1.1.2zm30.2 19.3h-1.3c-.2 0-.4-.1-.5-.1-.1-.1-.1-.4-.1-.6.1-.3-.4-.2-.7 0-.2.2-.3.4-.3.5.1.2-1.3-.6-1-.9.1-.2.8-.4 1-.5.1 0 .1-.1-.1-.2-.2 0-.9.2-1 .2-.2.1.1-.8.4-.8.7 0 2 .1 3.2 0 .8-.1 1-.2 1.2-.4.4-.4 1.5-1.3 1.1-1.8-.4-.4-1.2-.5-2.1-.1-1.8.6-2.5.8-3.7.6-4.1-.5-1.6-3.9-1-4-1.8.1-3.3 1.9-1.6 3.7.2.3-.7.4-1.3 1-.8.7-1.2 1.7-1.3 1.8-.2.2-1.5-.2-2.5.5-.6.4-.6.6-.7.8s.4.4.1.5h-1.3c-.2 0-.4-.1-.5-.1-.1-.1-.2-.2-.1-.8 0-.2-.5-.1-.8.2-.2.2-.1.3-.1.4 0 .2-1.3-.7-1-.9s1.3-.5 1.1-.6c-.3-.3-1.3-.1-1.3-.1s.1-.7.5-.8c.3-.1 2.3.2 3.9-.2.3-.1 1.5-1.1 1.6-1.6 0-.2-.1-.2-.7-.5-3.4-1.4.5-4 .5-4-2.2-.3-3.7 0-4.9.5s-3.8 1.8-7.8 1.6c-.1.4-.2.7-.5 1.1-.4.5-.9.8-1.4 1-.2.4-.3.9-.5 1.2-.1.1-.2.5 0 .5 1 .2 1.6.1 1.7.1.3 0 0 .9-.2.9-.1.1-.1-.1-.3-.2-.3-.1-.9-.1-1-.1-.8 0-1.1.2-1.4.4 0 0-.5.5-1 .9-.2.1 0 .5-.2.4-.2 0-.8-.3-.9-.4s-.2-.2 0-.3c.2-.2.5-.5.3-.4-.3 0-.4.1-.7.2-.7.3-.3.4-.5.5-.1 0-1.1-.4-1.1-.7s1.6-.5 1.5-.7c-.1-.1-.2-.1-.5-.1-.7 0-1.1.1-1.1.1-.2-.1.3-.7.5-.8s2.6.2 2.7.1c.3-.5.9-1.4 1-2.1-.6-.5-.8-1.4-.5-2.2-1.2-.4-2.9-1.6-3.4-4-.3 0-.8-.4-.9-.9-.4 0-2.7-.2-3.3-.3-.2 0-.4 0-.5.1s-.2.1-.2.2c-.2.3-.3.8-.4.9s-.8 0-.9-.2c0-.2.3-.1.3-.3.1-.4.2-.5.2-.6 0-.2.1-.4 0-.5-.1-.2-.2-.3-.3-.4-.6-.3-1.5-.6-1.5-.6-.1-.1-.4.2-.5 0 0-.1.1-.6.3-.7s.8.1 1.3.3c.1.1.3 0 .3 0s.1-.1 0-.3c-.2-.5-.6-1-.7-1.1s-.4 0-.4-.2c0-.1.3-.6.5-.6.1 0 .6.8 1 1.3.1.2.3.1.3.1s.1-.1.1-.3c0-.4-.1-.8-.1-.8-.1-.1-.2-.2-.1-.3s.6-.2.7 0c.1.1.1 1.3.2 2 0 .2.2.5.2.5l.4.2c.4.1 2.5-.1 3.2-.2.3-.5.7-.7 1.1-.7.2-.5.8-1.3 1.5-1.8 1-.6 1.7-.8 2.5-1 .9-.2.5-.7.3-1-.1-.1-.7 0-1 0-.9.1-1.3.3-1.8.3-.6-.1-.9-.5-.8-.6s.6 0 1-.1c.3-.1.3-.3.8-.4.4-.1.6 0 .9-.1.7-.3.7-1 .4-1.3-.4-.5-1.1-.2-1.6 0-1.3.3-.9-.6-1.9-.4-.2.1-.4.3-.7.4-.1.1-.1-.1-.1-.1s-.2-1.4 1.5-1.7c.8-.2.9-.1 1-.3.4-.5.7-.6 1.4-.8.8-.2 1.9-.1 3-.1.2 0 .5-.8.3-1.6-.1-.5.4-.2.4-.2l1.1 1.1s.2-1.1 0-1.6c0-.1.4-.4.6-.2.1.1 1.1 1.3 1.2 2.3 0 .3.1.5.1.7.1.6.3 1 .3 1.1.1.1.2.4.3.9.1 1.5-.4 3-.4 3 0 .2.2.2.5-.2l.3-.3c1.6-2.2 4.4-2.7 6.9-3.1 4.1-.8 7.7-2 10.9-4.8.1 1-.3 1.9-1.1 2.8.3.1 1.7-1 2.1-2.1 0 0 .5 2.1-.8 3-2 1.5-7.1 2.1-9.4 2.5-2 .3-3.8.6-5.4 1.3-1.7.9-2.2 2.2-2.2 2.2s.7-1.3 3.9-2.2c1.6-.4 4.9-.7 7.1-1 2.3-.3 4.2-.5 6.4-1.1 1.1-.3 2.8-1 4.5-3 .2 1.3-.3 2.8-3.4 3.9.2.2 2.6-.2 4.1-1.6.6 2.5-4.9 3.7-6.2 3.8.1.4 3.1.2 4.9-.2-.2.3-1.9 2.8-7.1 2.3.1.3 1.9.5 3.8.6-.7.4-1.3.7-2.2 1-.2 0 2.3.5 2.4 1.7.8-.1 2.4.1 3.9 1 2.4 1.4 4.4 1.7 4.1.7-.7-2.3-4.5-3.2-1.5-5.8 3.2-2.8 5.4-2.1 6.8-1.7-.5.9-1.7.7-2.7.8.1.3 1.3.3 1.4.4 0 .4-1.9.5-2.4.5 0 .2 1.6.1 1.1.5-.4.1-6.2.7-4 2.3.7.5 1.8 1.8 1.9 2 1.6 2.2-.7 3.2-3.3 2.6-3-.7-3-2.2-5.2-1.9 0 0-.8 4.5 1.7 4.6 1.8.1 1.9.2 3.4-.1.5-.1-.4 3-2.2 4.9-.2.2-.5.2-.7.2-.6 0-1.7 0-2.4 1-.2.4 0 .7.1.7zm-23.7-22c-.1-.1-.3-.2-.4-.2-.4-.1-1.1.1-1.3.1-.1 0-.5.1-.7.1-.3 0-.2-.1-.5-.2-.1 0-.3.3-.3.3.1 0 0 0 .2.1.4.2.8.1.8.1.2 0 .2.2.4.4s.6.1.8.1c.2-.1.3-.5.3-.5.2-.2.6.1.7.1 0-.1.1-.4 0-.4zm12.4 10.3s-2.2.2-3.2-1c-.4-.5.2.8 1.2 1.3 1.3.7 2.4-.2 2-.3zm4.2-.8s-2.4.5-3.8-.6c-.6-.5.3.9 1.6 1.3 1.5.5 2.6-.7 2.2-.7zm4-1.6s-2.6 1.1-4.3.2c-.7-.4.6.9 2 1.1 1.9.2 2.8-1.4 2.3-1.3z"/></symbol><symbol id="people" viewBox="0 0 24.9 18.9"><path d="M24.9 15.6v2c0 .2-.2.4-.4.4h-7.1v-1.8c0-1.6-1.4-2.3-3-3.2-.2-.1-.4-.2-.7-.4.7-.4 1.4-.9 1.9-1.5v-.8c-1.1.1-3.4-.7-3.4-.7.8-.8 1-1.7 1.5-5.3S17.4.7 17.6.7s3.4 0 3.9 3.6.7 4.5 1.5 5.3c0 0-2.3.8-3.4.7v.8c2 2.3 5.3 2.7 5.3 4.5zm-14.2-4.2v-.6c.6-.7 1-1.4 1.3-2.3 0-.1.1-.3.1-.4.3-.2.6-.6.6-1.1v-.5c0-.2-.1-.5-.3-.6V4.4c0-.4 0-.8-.1-1.3v-.3C11.9.2 9.5 0 8.6 0h-.7C7 0 4.6.3 4.2 2.8v.3c0 .4-.1.9-.1 1.3v1.5c-.1.1-.2.4-.3.6V7c.1.5.3.9.6 1.1.1.3.2.5.3.8.3.7.7 1.4 1.2 2v.6C3.6 13.8 0 14.2 0 16.2v2.2c0 .3.2.5.5.5h15.7c.3 0 .5-.2.5-.5v-2.2c-.1-2-3.7-2.4-6-4.8z" fill-rule="evenodd" clip-rule="evenodd"/></symbol><symbol id="question-circle" viewBox="0 0 1792 1792"><path d="M1024 1376v-192q0-14-9-23t-23-9H800q-14 0-23 9t-9 23v192q0 14 9 23t23 9h192q14 0 23-9t9-23zm256-672q0-88-55.5-163T1086 425t-170-41q-243 0-371 213-15 24 8 42l132 100q7 6 19 6 16 0 25-12 53-68 86-92 34-24 86-24 48 0 85.5 26t37.5 59q0 38-20 61t-68 45q-63 28-115.5 86.5T768 1020v36q0 14 9 23t23 9h192q14 0 23-9t9-23q0-19 21.5-49.5T1100 957q32-18 49-28.5t46-35 44.5-48 28-60.5 12.5-81zm384 192q0 209-103 385.5T1281.5 1561 896 1664t-385.5-103T231 1281.5 128 896t103-385.5T510.5 231 896 128t385.5 103T1561 510.5 1664 896z"/></symbol><symbol id="quote-close" viewBox="0 0 41.4 33.9"><path d="M19.6 11.1c0 2.6-.5 5.2-1.6 7.8-1.1 2.6-2.3 4.7-3.9 6.4-1.5 1.7-3.1 3.3-4.7 4.6-1.6 1.4-3 2.4-4.2 3-1.2.7-1.9 1-2.2 1-1.3 0-2.3-.9-3-2.7 2.7-1.6 5-3.5 6.7-5.7 1.8-2.2 2.9-3.9 3.3-5.1.5-1.3.7-2.2.7-3 0-1.3-1-3.1-3.1-5.4-2.1-2.3-3.1-4.1-3.1-5.5 0-1.8 1-3.4 3-4.6C9.5.6 11.8 0 14.3 0c.9 0 1.9.2 3 .5 1.6 2 2.3 5.5 2.3 10.6zm21.8 0c0 2.6-.5 5.2-1.6 7.8-1.1 2.6-2.3 4.7-3.9 6.4-1.5 1.7-3.1 3.3-4.8 4.6-1.7 1.4-3.1 2.4-4.2 3-1.2.7-1.9 1-2.2 1-1.2 0-2.2-.9-2.9-2.7 2.7-1.6 4.9-3.5 6.7-5.7 1.7-2.2 2.8-3.9 3.3-5.1.5-1.3.7-2.2.7-3 0-1.3-1-3.1-3.1-5.4-2.1-2.3-3.1-4.1-3.1-5.5 0-1.8 1-3.4 3-4.6C31.3.6 33.6 0 36.1 0c1 0 2 .2 3 .5 1.5 2.2 2.3 5.7 2.3 10.6z"/></symbol><symbol id="quote-open" viewBox="0 0 41.4 33.9"><path d="M21.8 22.8c0-2.6.5-5.2 1.6-7.8 1.1-2.6 2.3-4.7 3.9-6.4C28.8 6.9 30.4 5.3 32 4c1.6-1.4 3-2.4 4.2-3 1.2-.7 1.9-1 2.2-1 1.3 0 2.3.9 3 2.7-2.7 1.6-5 3.5-6.7 5.7-1.8 2.2-2.9 3.9-3.3 5.1-.5 1.3-.7 2.2-.7 3 0 1.3 1 3.1 3.1 5.4 2.1 2.3 3.1 4.1 3.1 5.5 0 1.8-1 3.4-3 4.6-2 1.3-4.3 1.9-6.8 1.9-.9 0-1.9-.2-3-.5-1.6-2-2.3-5.5-2.3-10.6zM0 22.8c0-2.6.5-5.2 1.6-7.8 1.1-2.6 2.3-4.7 3.9-6.4C7 6.9 8.6 5.3 10.3 4c1.7-1.4 3.1-2.4 4.2-3 1.2-.7 1.9-1 2.2-1 1.2 0 2.2.9 2.9 2.7-2.7 1.6-4.9 3.5-6.7 5.7-1.7 2.2-2.8 3.9-3.3 5.1-.5 1.3-.7 2.2-.7 3 0 1.3 1 3.1 3.1 5.4 2.1 2.3 3.1 4.1 3.1 5.5 0 1.8-1 3.4-3 4.6-2 1.3-4.3 1.9-6.8 1.9-1 0-2-.2-3-.5C.8 31.2 0 27.7 0 22.8z"/></symbol><symbol id="search" viewBox="0 0 40.346817 40.546817"><path d="M27.5 23.5c1.6-2.5 2.5-5.3 2.5-8.4 0-4-1.6-7.8-4.4-10.7C22.8 1.6 19 0 15 0S7.2 1.6 4.4 4.4 0 11 0 15.1s1.5 7.8 4.3 10.7c2.8 2.8 6.6 4.4 10.6 4.4 3.1 0 6-.9 8.4-2.6L36 40.3c.4.4 1.2.3 1.8-.2l2.1-2.1c.5-.5.6-1.3.2-1.8L27.5 23.5zM15 26.1c-6 0-11-4.9-11-11s4.9-11 11-11 11 4.9 11 11-5 11-11 11z"/></symbol><symbol id="share" viewBox="0 0 52 42"><path d="M0 42h52V0L0 42zm44-7.4H30.1v-10h6.6c-.1.1-.2.1-.3.2-.4.3-.8.6-1.1.9h-4.1v7.8h11.6v-2.2l1.1-.9v4.2zm-3.8-3.2v-2.8c-5.7 0-6.4 3-6.4 3 .5-6.4 5.4-6.6 6.4-6.5v-2.7l5.4 4.5-5.4 4.5z"/></symbol><symbol id="twitter" viewBox="0 0 1792 1792"><path d="M1684 408q-67 98-162 167 1 14 1 42 0 130-38 259.5T1369.5 1125 1185 1335.5t-258 146-323 54.5q-271 0-496-145 35 4 78 4 225 0 401-138-105-2-188-64.5T285 1033q33 5 61 5 43 0 85-11-112-23-185.5-111.5T172 710v-4q68 38 146 41-66-44-105-115t-39-154q0-88 44-163 121 149 294.5 238.5T884 653q-8-38-8-74 0-134 94.5-228.5T1199 256q140 0 236 102 109-21 205-78-37 115-142 178 93-10 186-50z"/></symbol><symbol id="x" viewBox="0 0 44.899999 44.899999"><path d="M44.6 43.2c.4.4.4 1 0 1.4-.2.2-.5.3-.7.3s-.5-.1-.7-.3L22.4 23.9 1.7 44.6c-.2.2-.5.3-.7.3s-.5-.1-.7-.3c-.4-.4-.4-1 0-1.4L21 22.5.3 1.7C-.1 1.3-.1.7.3.3s1-.4 1.4 0L22.4 21 43.2.3c.4-.4 1-.4 1.4 0s.4 1 0 1.4L23.9 22.5l20.7 20.7z"/></symbol><symbol id="youtube-play" viewBox="0 0 1792 1792"><path d="M1280 896q0-37-30-54L738 522q-31-20-65-2-33 18-33 56v640q0 38 33 56 16 8 31 8 20 0 34-10l512-320q30-17 30-54zm512 0q0 96-1 150t-8.5 136.5T1760 1330q-16 73-69 123t-124 58q-222 25-671 25t-671-25q-71-8-124.5-58T31 1330q-14-65-21.5-147.5T1 1046 0 896t1-150 8.5-136.5T32 462q16-73 69-123t124-58q222-25 671-25t671 25q71 8 124.5 58t69.5 123q14 65 21.5 147.5T1791 746t1 150z"/></symbol></svg>